<mxfile host="app.diagrams.net" agent="Mozilla/5.0 (Windows NT 10.0; Win64; x64) AppleWebKit/537.36 (KHTML, like Gecko) Chrome/133.0.0.0 Safari/537.36 Edg/133.0.0.0" version="26.0.16" pages="6">
  <diagram name="context-diagram" id="O5p6k6iPGNvbvgjDATUz">
    <mxGraphModel dx="1274" dy="979" grid="0" gridSize="10" guides="1" tooltips="1" connect="1" arrows="1" fold="1" page="0" pageScale="1" pageWidth="850" pageHeight="1100" math="0" shadow="0">
      <root>
        <mxCell id="0" />
        <mxCell id="1" parent="0" />
        <mxCell id="z2jl9_Elbo3O-PhKAKKN-14" value="" style="group" parent="1" vertex="1" connectable="0">
          <mxGeometry x="279" y="128" width="145" height="80" as="geometry" />
        </mxCell>
        <mxCell id="z2jl9_Elbo3O-PhKAKKN-2" value="" style="group" parent="z2jl9_Elbo3O-PhKAKKN-14" vertex="1" connectable="0">
          <mxGeometry y="9" width="145" height="71" as="geometry" />
        </mxCell>
        <mxCell id="z2jl9_Elbo3O-PhKAKKN-3" value="" style="rounded=0;whiteSpace=wrap;html=1;" parent="z2jl9_Elbo3O-PhKAKKN-2" vertex="1">
          <mxGeometry x="-12" y="-7" width="157" height="77" as="geometry" />
        </mxCell>
        <mxCell id="z2jl9_Elbo3O-PhKAKKN-4" value="" style="shape=cylinder3;whiteSpace=wrap;html=1;boundedLbl=1;backgroundOutline=1;size=15;" parent="z2jl9_Elbo3O-PhKAKKN-2" vertex="1">
          <mxGeometry x="-6.75" y="12" width="53.5" height="48" as="geometry" />
        </mxCell>
        <mxCell id="z2jl9_Elbo3O-PhKAKKN-6" value="" style="group" parent="z2jl9_Elbo3O-PhKAKKN-2" vertex="1" connectable="0">
          <mxGeometry x="86" y="12" width="59" height="64" as="geometry" />
        </mxCell>
        <mxCell id="z2jl9_Elbo3O-PhKAKKN-7" value="" style="sketch=0;outlineConnect=0;fontColor=#232F3E;gradientColor=none;strokeColor=#232F3E;fillColor=#ffffff;dashed=0;verticalLabelPosition=bottom;verticalAlign=top;align=center;html=1;fontSize=12;fontStyle=0;aspect=fixed;shape=mxgraph.aws4.resourceIcon;resIcon=mxgraph.aws4.data_encryption_key;" parent="z2jl9_Elbo3O-PhKAKKN-6" vertex="1">
          <mxGeometry x="3.933333333333333" width="47.542857142857144" height="47.542857142857144" as="geometry" />
        </mxCell>
        <mxCell id="z2jl9_Elbo3O-PhKAKKN-8" value="&lt;font style=&quot;font-size: 9px;&quot;&gt;Auth&lt;/font&gt;" style="text;html=1;align=center;verticalAlign=middle;whiteSpace=wrap;rounded=0;" parent="z2jl9_Elbo3O-PhKAKKN-6" vertex="1">
          <mxGeometry y="36.57142857142857" width="59" height="27.428571428571427" as="geometry" />
        </mxCell>
        <mxCell id="z2jl9_Elbo3O-PhKAKKN-12" value="" style="group" parent="z2jl9_Elbo3O-PhKAKKN-2" vertex="1" connectable="0">
          <mxGeometry x="-10" y="18.5" width="60" height="51" as="geometry" />
        </mxCell>
        <mxCell id="z2jl9_Elbo3O-PhKAKKN-5" value="&lt;font style=&quot;font-size: 9px;&quot;&gt;Postgres&lt;/font&gt;" style="text;html=1;align=center;verticalAlign=middle;whiteSpace=wrap;rounded=0;" parent="z2jl9_Elbo3O-PhKAKKN-12" vertex="1">
          <mxGeometry y="16.5" width="60" height="30" as="geometry" />
        </mxCell>
        <mxCell id="z2jl9_Elbo3O-PhKAKKN-9" value="Supabase" style="text;html=1;align=center;verticalAlign=middle;whiteSpace=wrap;rounded=0;" parent="z2jl9_Elbo3O-PhKAKKN-14" vertex="1">
          <mxGeometry x="40.059999999999945" width="54.87" height="25.09" as="geometry" />
        </mxCell>
        <mxCell id="q63gI_Fwjk9fpuUXVtqA-4" value="" style="group" parent="1" vertex="1" connectable="0">
          <mxGeometry x="91" y="19" width="100" height="109" as="geometry" />
        </mxCell>
        <mxCell id="q63gI_Fwjk9fpuUXVtqA-2" value="&lt;div&gt;&lt;br&gt;&lt;/div&gt;&lt;div&gt;JOB APPLICATION MANAGEMENT SYSTEM&lt;/div&gt;" style="rounded=1;whiteSpace=wrap;html=1;absoluteArcSize=1;arcSize=14;strokeWidth=2;" parent="q63gI_Fwjk9fpuUXVtqA-4" vertex="1">
          <mxGeometry width="100" height="109" as="geometry" />
        </mxCell>
        <mxCell id="q63gI_Fwjk9fpuUXVtqA-3" value="" style="endArrow=none;html=1;rounded=0;fontSize=12;startSize=8;endSize=8;curved=1;exitX=0;exitY=0.25;exitDx=0;exitDy=0;entryX=1;entryY=0.25;entryDx=0;entryDy=0;" parent="q63gI_Fwjk9fpuUXVtqA-4" source="q63gI_Fwjk9fpuUXVtqA-2" target="q63gI_Fwjk9fpuUXVtqA-2" edge="1">
          <mxGeometry width="50" height="50" relative="1" as="geometry">
            <mxPoint x="25" y="84" as="sourcePoint" />
            <mxPoint x="75" y="34" as="targetPoint" />
          </mxGeometry>
        </mxCell>
        <mxCell id="q63gI_Fwjk9fpuUXVtqA-5" value="0" style="text;html=1;align=center;verticalAlign=middle;whiteSpace=wrap;rounded=0;" parent="q63gI_Fwjk9fpuUXVtqA-4" vertex="1">
          <mxGeometry x="17" width="60" height="30" as="geometry" />
        </mxCell>
        <mxCell id="q63gI_Fwjk9fpuUXVtqA-11" value="" style="group" parent="1" vertex="1" connectable="0">
          <mxGeometry x="-137" y="-144" width="100" height="100" as="geometry" />
        </mxCell>
        <mxCell id="q63gI_Fwjk9fpuUXVtqA-7" value="" style="html=1;dashed=0;whiteSpace=wrap;shape=mxgraph.dfd.externalEntity" parent="q63gI_Fwjk9fpuUXVtqA-11" vertex="1">
          <mxGeometry width="100" height="100" as="geometry" />
        </mxCell>
        <mxCell id="q63gI_Fwjk9fpuUXVtqA-10" value="User" style="text;html=1;align=center;verticalAlign=middle;whiteSpace=wrap;rounded=0;" parent="q63gI_Fwjk9fpuUXVtqA-11" vertex="1">
          <mxGeometry x="20" y="35" width="60" height="30" as="geometry" />
        </mxCell>
        <mxCell id="q63gI_Fwjk9fpuUXVtqA-12" value="" style="endArrow=classic;html=1;rounded=0;fontSize=12;startSize=8;endSize=8;exitX=0;exitY=0;exitDx=100;exitDy=32.5;exitPerimeter=0;entryX=0.5;entryY=0;entryDx=0;entryDy=0;edgeStyle=orthogonalEdgeStyle;" parent="1" source="q63gI_Fwjk9fpuUXVtqA-7" target="q63gI_Fwjk9fpuUXVtqA-5" edge="1">
          <mxGeometry width="50" height="50" relative="1" as="geometry">
            <mxPoint x="25" y="-24" as="sourcePoint" />
            <mxPoint x="75" y="-74" as="targetPoint" />
          </mxGeometry>
        </mxCell>
        <mxCell id="q63gI_Fwjk9fpuUXVtqA-14" value="job application details" style="edgeLabel;html=1;align=center;verticalAlign=middle;resizable=0;points=[];fontSize=12;" parent="q63gI_Fwjk9fpuUXVtqA-12" vertex="1" connectable="0">
          <mxGeometry x="-0.3841" y="3" relative="1" as="geometry">
            <mxPoint x="13" y="-8" as="offset" />
          </mxGeometry>
        </mxCell>
        <mxCell id="q63gI_Fwjk9fpuUXVtqA-15" value="" style="endArrow=classic;html=1;rounded=0;fontSize=12;startSize=8;endSize=8;entryX=0;entryY=0;entryDx=55;entryDy=100;entryPerimeter=0;exitX=0;exitY=0.5;exitDx=0;exitDy=0;edgeStyle=orthogonalEdgeStyle;" parent="1" source="q63gI_Fwjk9fpuUXVtqA-2" target="q63gI_Fwjk9fpuUXVtqA-7" edge="1">
          <mxGeometry width="50" height="50" relative="1" as="geometry">
            <mxPoint x="25" y="142" as="sourcePoint" />
            <mxPoint x="75" y="92" as="targetPoint" />
          </mxGeometry>
        </mxCell>
        <mxCell id="q63gI_Fwjk9fpuUXVtqA-16" value="Job/Group/Document/Statistics" style="edgeLabel;html=1;align=center;verticalAlign=middle;resizable=0;points=[];fontSize=12;" parent="q63gI_Fwjk9fpuUXVtqA-15" vertex="1" connectable="0">
          <mxGeometry x="-0.1164" y="4" relative="1" as="geometry">
            <mxPoint x="40" y="-18" as="offset" />
          </mxGeometry>
        </mxCell>
        <mxCell id="q63gI_Fwjk9fpuUXVtqA-31" value="" style="endArrow=classic;html=1;rounded=0;fontSize=12;startSize=8;endSize=8;exitX=0;exitY=0;exitDx=100;exitDy=77.5;exitPerimeter=0;entryX=0.25;entryY=0;entryDx=0;entryDy=0;edgeStyle=orthogonalEdgeStyle;" parent="1" source="q63gI_Fwjk9fpuUXVtqA-7" target="q63gI_Fwjk9fpuUXVtqA-2" edge="1">
          <mxGeometry width="50" height="50" relative="1" as="geometry">
            <mxPoint x="45" y="152" as="sourcePoint" />
            <mxPoint x="95" y="102" as="targetPoint" />
          </mxGeometry>
        </mxCell>
        <mxCell id="q63gI_Fwjk9fpuUXVtqA-32" value="authentication credentials" style="edgeLabel;html=1;align=center;verticalAlign=middle;resizable=0;points=[];fontSize=12;" parent="1" vertex="1" connectable="0">
          <mxGeometry x="35" y="-78" as="geometry" />
        </mxCell>
        <mxCell id="q63gI_Fwjk9fpuUXVtqA-35" value="&lt;b&gt;&lt;font style=&quot;font-size: 18px;&quot;&gt;Busybee -&amp;nbsp;&lt;/font&gt;&lt;/b&gt;&lt;b style=&quot;background-color: transparent; color: light-dark(rgb(0, 0, 0), rgb(255, 255, 255));&quot;&gt;&lt;font style=&quot;font-size: 18px;&quot;&gt;Context Diagram&lt;/font&gt;&lt;/b&gt;" style="text;html=1;align=center;verticalAlign=middle;whiteSpace=wrap;rounded=0;" parent="1" vertex="1">
          <mxGeometry x="-126" y="-235" width="534" height="30" as="geometry" />
        </mxCell>
        <mxCell id="hTGGIrF8rQ3D2reMKzPM-1" value="" style="endArrow=classic;html=1;rounded=0;fontSize=12;startSize=8;endSize=8;exitX=1;exitY=0.5;exitDx=0;exitDy=0;edgeStyle=orthogonalEdgeStyle;" parent="1" source="q63gI_Fwjk9fpuUXVtqA-2" target="z2jl9_Elbo3O-PhKAKKN-7" edge="1">
          <mxGeometry width="50" height="50" relative="1" as="geometry">
            <mxPoint x="111" y="95" as="sourcePoint" />
            <mxPoint x="161" y="45" as="targetPoint" />
          </mxGeometry>
        </mxCell>
        <mxCell id="hTGGIrF8rQ3D2reMKzPM-2" value="authentication request" style="edgeLabel;html=1;align=center;verticalAlign=middle;resizable=0;points=[];fontSize=12;" parent="hTGGIrF8rQ3D2reMKzPM-1" vertex="1" connectable="0">
          <mxGeometry x="-0.8808" y="-2" relative="1" as="geometry">
            <mxPoint x="43" y="-12" as="offset" />
          </mxGeometry>
        </mxCell>
        <mxCell id="hTGGIrF8rQ3D2reMKzPM-3" value="" style="endArrow=classic;html=1;rounded=0;fontSize=12;startSize=8;endSize=8;entryX=0;entryY=0;entryDx=32.5;entryDy=100;entryPerimeter=0;edgeStyle=orthogonalEdgeStyle;" parent="1" target="q63gI_Fwjk9fpuUXVtqA-7" edge="1">
          <mxGeometry width="50" height="50" relative="1" as="geometry">
            <mxPoint x="395" y="199" as="sourcePoint" />
            <mxPoint x="161" y="145" as="targetPoint" />
            <Array as="points">
              <mxPoint x="395" y="232" />
              <mxPoint x="-104" y="232" />
            </Array>
          </mxGeometry>
        </mxCell>
        <mxCell id="hTGGIrF8rQ3D2reMKzPM-4" value="JSON Web Token" style="edgeLabel;html=1;align=center;verticalAlign=middle;resizable=0;points=[];fontSize=12;" parent="hTGGIrF8rQ3D2reMKzPM-3" vertex="1" connectable="0">
          <mxGeometry x="-0.8498" y="3" relative="1" as="geometry">
            <mxPoint x="-24" y="-12" as="offset" />
          </mxGeometry>
        </mxCell>
        <mxCell id="hTGGIrF8rQ3D2reMKzPM-9" value="" style="endArrow=classic;startArrow=classic;html=1;rounded=0;fontSize=12;startSize=8;endSize=8;entryX=0.5;entryY=1;entryDx=0;entryDy=0;exitX=0;exitY=0.25;exitDx=0;exitDy=0;edgeStyle=orthogonalEdgeStyle;" parent="1" source="z2jl9_Elbo3O-PhKAKKN-5" target="q63gI_Fwjk9fpuUXVtqA-2" edge="1">
          <mxGeometry width="50" height="50" relative="1" as="geometry">
            <mxPoint x="115" y="196" as="sourcePoint" />
            <mxPoint x="165" y="146" as="targetPoint" />
          </mxGeometry>
        </mxCell>
        <mxCell id="hTGGIrF8rQ3D2reMKzPM-10" value="Job/Group/Document" style="edgeLabel;html=1;align=center;verticalAlign=middle;resizable=0;points=[];fontSize=12;" parent="hTGGIrF8rQ3D2reMKzPM-9" vertex="1" connectable="0">
          <mxGeometry x="0.0144" relative="1" as="geometry">
            <mxPoint x="25" y="-11" as="offset" />
          </mxGeometry>
        </mxCell>
      </root>
    </mxGraphModel>
  </diagram>
  <diagram id="zpxP3Ps4VpmsDWlUv-ii" name="dfd0-JobApplicationManagementSystem">
    <mxGraphModel dx="1649" dy="1227" grid="0" gridSize="10" guides="1" tooltips="1" connect="1" arrows="1" fold="1" page="0" pageScale="1" pageWidth="850" pageHeight="1100" math="0" shadow="0">
      <root>
        <mxCell id="0" />
        <mxCell id="1" parent="0" />
        <mxCell id="wFwPcphP3-anJ34ma1Xt-12" value="" style="group" parent="1" vertex="1" connectable="0">
          <mxGeometry x="366" y="66" width="145" height="103" as="geometry" />
        </mxCell>
        <mxCell id="wFwPcphP3-anJ34ma1Xt-10" value="" style="group" parent="wFwPcphP3-anJ34ma1Xt-12" vertex="1" connectable="0">
          <mxGeometry y="32" width="145" height="71" as="geometry" />
        </mxCell>
        <mxCell id="wFwPcphP3-anJ34ma1Xt-11" value="" style="rounded=0;whiteSpace=wrap;html=1;" parent="wFwPcphP3-anJ34ma1Xt-10" vertex="1">
          <mxGeometry x="-12" y="-7" width="157" height="77" as="geometry" />
        </mxCell>
        <mxCell id="wFwPcphP3-anJ34ma1Xt-4" value="" style="shape=cylinder3;whiteSpace=wrap;html=1;boundedLbl=1;backgroundOutline=1;size=15;" parent="wFwPcphP3-anJ34ma1Xt-10" vertex="1">
          <mxGeometry x="2" y="11" width="53.5" height="48" as="geometry" />
        </mxCell>
        <mxCell id="wFwPcphP3-anJ34ma1Xt-8" value="&lt;font style=&quot;font-size: 9px;&quot;&gt;Postgres&lt;/font&gt;" style="text;html=1;align=center;verticalAlign=middle;whiteSpace=wrap;rounded=0;" parent="wFwPcphP3-anJ34ma1Xt-10" vertex="1">
          <mxGeometry x="-1.25" y="32" width="60" height="30" as="geometry" />
        </mxCell>
        <mxCell id="wFwPcphP3-anJ34ma1Xt-9" value="" style="group" parent="wFwPcphP3-anJ34ma1Xt-10" vertex="1" connectable="0">
          <mxGeometry x="93" y="12" width="59" height="64" as="geometry" />
        </mxCell>
        <mxCell id="wFwPcphP3-anJ34ma1Xt-5" value="" style="sketch=0;outlineConnect=0;fontColor=#232F3E;gradientColor=none;strokeColor=#232F3E;fillColor=#ffffff;dashed=0;verticalLabelPosition=bottom;verticalAlign=top;align=center;html=1;fontSize=12;fontStyle=0;aspect=fixed;shape=mxgraph.aws4.resourceIcon;resIcon=mxgraph.aws4.data_encryption_key;" parent="wFwPcphP3-anJ34ma1Xt-9" vertex="1">
          <mxGeometry x="3.933333333333333" width="47.542857142857144" height="47.542857142857144" as="geometry" />
        </mxCell>
        <mxCell id="wFwPcphP3-anJ34ma1Xt-7" value="&lt;font style=&quot;font-size: 9px;&quot;&gt;Auth&lt;/font&gt;" style="text;html=1;align=center;verticalAlign=middle;whiteSpace=wrap;rounded=0;" parent="wFwPcphP3-anJ34ma1Xt-9" vertex="1">
          <mxGeometry y="36.57142857142857" width="59" height="27.428571428571427" as="geometry" />
        </mxCell>
        <mxCell id="wFwPcphP3-anJ34ma1Xt-6" value="Supabase" style="text;html=1;align=center;verticalAlign=middle;whiteSpace=wrap;rounded=0;" parent="wFwPcphP3-anJ34ma1Xt-10" vertex="1">
          <mxGeometry x="53" y="-9" width="54.87" height="25.09" as="geometry" />
        </mxCell>
        <mxCell id="xrO_U5HpCgTilkc1WAlx-19" value="" style="endArrow=classic;html=1;rounded=0;entryX=1;entryY=0.5;entryDx=0;entryDy=0;entryPerimeter=0;" parent="wFwPcphP3-anJ34ma1Xt-10" source="wFwPcphP3-anJ34ma1Xt-5" target="wFwPcphP3-anJ34ma1Xt-4" edge="1">
          <mxGeometry width="50" height="50" relative="1" as="geometry">
            <mxPoint x="-152" y="107" as="sourcePoint" />
            <mxPoint x="-102" y="57" as="targetPoint" />
          </mxGeometry>
        </mxCell>
        <mxCell id="xrO_U5HpCgTilkc1WAlx-20" value="user" style="edgeLabel;html=1;align=center;verticalAlign=middle;resizable=0;points=[];" parent="xrO_U5HpCgTilkc1WAlx-19" vertex="1" connectable="0">
          <mxGeometry x="-0.1819" y="-1" relative="1" as="geometry">
            <mxPoint y="1" as="offset" />
          </mxGeometry>
        </mxCell>
        <mxCell id="wFwPcphP3-anJ34ma1Xt-3" style="edgeStyle=none;curved=1;rounded=0;orthogonalLoop=1;jettySize=auto;html=1;entryX=0;entryY=0;entryDx=45;entryDy=0;entryPerimeter=0;fontSize=12;startSize=8;endSize=8;" parent="wFwPcphP3-anJ34ma1Xt-12" edge="1">
          <mxGeometry relative="1" as="geometry">
            <mxPoint x="95.00000000000023" as="sourcePoint" />
            <mxPoint x="95.00000000000023" as="targetPoint" />
          </mxGeometry>
        </mxCell>
        <mxCell id="yKaXMZlZZyySH07uH2L8-1" value="" style="group" parent="1" vertex="1" connectable="0">
          <mxGeometry x="143" y="-101" width="100" height="117" as="geometry" />
        </mxCell>
        <mxCell id="3px4NZemlOhLX4Ce7mVa-1" value="MANAGE JOBS" style="rounded=1;whiteSpace=wrap;html=1;absoluteArcSize=1;arcSize=14;strokeWidth=2;" parent="yKaXMZlZZyySH07uH2L8-1" vertex="1">
          <mxGeometry width="100" height="117" as="geometry" />
        </mxCell>
        <mxCell id="3px4NZemlOhLX4Ce7mVa-2" value="" style="endArrow=none;html=1;rounded=0;fontSize=12;startSize=8;endSize=8;curved=1;exitX=0;exitY=0.25;exitDx=0;exitDy=0;entryX=1;entryY=0.25;entryDx=0;entryDy=0;" parent="yKaXMZlZZyySH07uH2L8-1" source="3px4NZemlOhLX4Ce7mVa-1" target="3px4NZemlOhLX4Ce7mVa-1" edge="1">
          <mxGeometry width="50" height="50" relative="1" as="geometry">
            <mxPoint x="352" y="274" as="sourcePoint" />
            <mxPoint x="402" y="224" as="targetPoint" />
          </mxGeometry>
        </mxCell>
        <mxCell id="3px4NZemlOhLX4Ce7mVa-3" value="1" style="text;html=1;align=center;verticalAlign=middle;whiteSpace=wrap;rounded=0;" parent="yKaXMZlZZyySH07uH2L8-1" vertex="1">
          <mxGeometry x="14" y="5" width="63" height="26" as="geometry" />
        </mxCell>
        <mxCell id="962dw4XNeouLEIoYBmzk-1" value="&lt;b&gt;&lt;font style=&quot;font-size: 18px;&quot;&gt;Busybee - DFD 0&lt;/font&gt;&lt;/b&gt;&lt;div&gt;&lt;b&gt;&lt;font style=&quot;font-size: 18px;&quot;&gt;JOB APPLICATION MANAGEMENT SYSTEM&lt;/font&gt;&lt;/b&gt;&lt;/div&gt;" style="text;html=1;align=center;verticalAlign=middle;whiteSpace=wrap;rounded=0;" parent="1" vertex="1">
          <mxGeometry x="-135" y="-196" width="656" height="42" as="geometry" />
        </mxCell>
        <mxCell id="962dw4XNeouLEIoYBmzk-6" value="" style="group" parent="1" vertex="1" connectable="0">
          <mxGeometry x="143" y="71" width="100" height="117" as="geometry" />
        </mxCell>
        <mxCell id="962dw4XNeouLEIoYBmzk-7" value="MANAGE GROUPS" style="rounded=1;whiteSpace=wrap;html=1;absoluteArcSize=1;arcSize=14;strokeWidth=2;" parent="962dw4XNeouLEIoYBmzk-6" vertex="1">
          <mxGeometry width="100" height="117" as="geometry" />
        </mxCell>
        <mxCell id="962dw4XNeouLEIoYBmzk-8" value="" style="endArrow=none;html=1;rounded=0;fontSize=12;startSize=8;endSize=8;curved=1;exitX=0;exitY=0.25;exitDx=0;exitDy=0;entryX=1;entryY=0.25;entryDx=0;entryDy=0;" parent="962dw4XNeouLEIoYBmzk-6" source="962dw4XNeouLEIoYBmzk-7" target="962dw4XNeouLEIoYBmzk-7" edge="1">
          <mxGeometry width="50" height="50" relative="1" as="geometry">
            <mxPoint x="352" y="274" as="sourcePoint" />
            <mxPoint x="402" y="224" as="targetPoint" />
          </mxGeometry>
        </mxCell>
        <mxCell id="962dw4XNeouLEIoYBmzk-9" value="2" style="text;html=1;align=center;verticalAlign=middle;whiteSpace=wrap;rounded=0;" parent="962dw4XNeouLEIoYBmzk-6" vertex="1">
          <mxGeometry x="14" y="5" width="63" height="26" as="geometry" />
        </mxCell>
        <mxCell id="962dw4XNeouLEIoYBmzk-10" value="" style="group" parent="1" vertex="1" connectable="0">
          <mxGeometry x="143" y="242" width="100" height="117" as="geometry" />
        </mxCell>
        <mxCell id="962dw4XNeouLEIoYBmzk-11" value="MANAGE DOCUMENTS" style="rounded=1;whiteSpace=wrap;html=1;absoluteArcSize=1;arcSize=14;strokeWidth=2;" parent="962dw4XNeouLEIoYBmzk-10" vertex="1">
          <mxGeometry width="100" height="117" as="geometry" />
        </mxCell>
        <mxCell id="962dw4XNeouLEIoYBmzk-12" value="" style="endArrow=none;html=1;rounded=0;fontSize=12;startSize=8;endSize=8;curved=1;exitX=0;exitY=0.25;exitDx=0;exitDy=0;entryX=1;entryY=0.25;entryDx=0;entryDy=0;" parent="962dw4XNeouLEIoYBmzk-10" source="962dw4XNeouLEIoYBmzk-11" target="962dw4XNeouLEIoYBmzk-11" edge="1">
          <mxGeometry width="50" height="50" relative="1" as="geometry">
            <mxPoint x="352" y="274" as="sourcePoint" />
            <mxPoint x="402" y="224" as="targetPoint" />
          </mxGeometry>
        </mxCell>
        <mxCell id="962dw4XNeouLEIoYBmzk-13" value="3" style="text;html=1;align=center;verticalAlign=middle;whiteSpace=wrap;rounded=0;" parent="962dw4XNeouLEIoYBmzk-10" vertex="1">
          <mxGeometry x="14" y="5" width="63" height="26" as="geometry" />
        </mxCell>
        <mxCell id="962dw4XNeouLEIoYBmzk-14" value="User" style="html=1;dashed=0;whiteSpace=wrap;shape=mxgraph.dfd.externalEntity" parent="1" vertex="1">
          <mxGeometry x="-126" y="76" width="100" height="100" as="geometry" />
        </mxCell>
        <mxCell id="962dw4XNeouLEIoYBmzk-16" value="" style="endArrow=classic;html=1;rounded=0;fontSize=12;startSize=8;endSize=8;exitX=0;exitY=0;exitDx=100;exitDy=32.5;exitPerimeter=0;entryX=0;entryY=0.75;entryDx=0;entryDy=0;edgeStyle=elbowEdgeStyle;" parent="1" source="962dw4XNeouLEIoYBmzk-14" target="3px4NZemlOhLX4Ce7mVa-1" edge="1">
          <mxGeometry width="50" height="50" relative="1" as="geometry">
            <mxPoint x="178" y="116" as="sourcePoint" />
            <mxPoint x="228" y="66" as="targetPoint" />
          </mxGeometry>
        </mxCell>
        <mxCell id="962dw4XNeouLEIoYBmzk-18" value="job details" style="edgeLabel;html=1;align=center;verticalAlign=middle;resizable=0;points=[];fontSize=12;rotation=0;" parent="962dw4XNeouLEIoYBmzk-16" vertex="1" connectable="0">
          <mxGeometry x="-0.0556" relative="1" as="geometry">
            <mxPoint x="41" y="-80" as="offset" />
          </mxGeometry>
        </mxCell>
        <mxCell id="962dw4XNeouLEIoYBmzk-20" value="" style="endArrow=classic;html=1;rounded=0;fontSize=12;startSize=8;endSize=8;curved=1;exitX=0;exitY=0;exitDx=100;exitDy=55;exitPerimeter=0;entryX=0;entryY=0.5;entryDx=0;entryDy=0;" parent="1" source="962dw4XNeouLEIoYBmzk-14" target="962dw4XNeouLEIoYBmzk-7" edge="1">
          <mxGeometry width="50" height="50" relative="1" as="geometry">
            <mxPoint x="237" y="227" as="sourcePoint" />
            <mxPoint x="287" y="177" as="targetPoint" />
          </mxGeometry>
        </mxCell>
        <mxCell id="962dw4XNeouLEIoYBmzk-22" value="group details" style="edgeLabel;html=1;align=center;verticalAlign=middle;resizable=0;points=[];fontSize=12;" parent="962dw4XNeouLEIoYBmzk-20" vertex="1" connectable="0">
          <mxGeometry x="-0.0186" y="-4" relative="1" as="geometry">
            <mxPoint x="35" y="-15" as="offset" />
          </mxGeometry>
        </mxCell>
        <mxCell id="962dw4XNeouLEIoYBmzk-21" value="" style="endArrow=classic;html=1;rounded=0;fontSize=12;startSize=8;endSize=8;exitX=0;exitY=0;exitDx=100;exitDy=77.5;exitPerimeter=0;entryX=0;entryY=0.5;entryDx=0;entryDy=0;edgeStyle=orthogonalEdgeStyle;" parent="1" source="962dw4XNeouLEIoYBmzk-14" target="962dw4XNeouLEIoYBmzk-11" edge="1">
          <mxGeometry width="50" height="50" relative="1" as="geometry">
            <mxPoint x="135" y="149" as="sourcePoint" />
            <mxPoint x="315" y="149" as="targetPoint" />
          </mxGeometry>
        </mxCell>
        <mxCell id="QJ_WMZtQK6DnBT9miJFS-4" value="document" style="edgeLabel;html=1;align=center;verticalAlign=middle;resizable=0;points=[];fontSize=12;" parent="962dw4XNeouLEIoYBmzk-21" vertex="1" connectable="0">
          <mxGeometry x="0.0529" y="2" relative="1" as="geometry">
            <mxPoint x="39" y="53" as="offset" />
          </mxGeometry>
        </mxCell>
        <mxCell id="H4lXw2sXraJY-aFSKDLj-1" value="" style="group" parent="1" vertex="1" connectable="0">
          <mxGeometry x="-130" y="-101" width="100" height="117" as="geometry" />
        </mxCell>
        <mxCell id="H4lXw2sXraJY-aFSKDLj-2" value="PRODUCE STATISTICS" style="rounded=1;whiteSpace=wrap;html=1;absoluteArcSize=1;arcSize=14;strokeWidth=2;" parent="H4lXw2sXraJY-aFSKDLj-1" vertex="1">
          <mxGeometry width="100" height="117" as="geometry" />
        </mxCell>
        <mxCell id="H4lXw2sXraJY-aFSKDLj-3" value="" style="endArrow=none;html=1;rounded=0;fontSize=12;startSize=8;endSize=8;curved=1;exitX=0;exitY=0.25;exitDx=0;exitDy=0;entryX=1;entryY=0.25;entryDx=0;entryDy=0;" parent="H4lXw2sXraJY-aFSKDLj-1" source="H4lXw2sXraJY-aFSKDLj-2" target="H4lXw2sXraJY-aFSKDLj-2" edge="1">
          <mxGeometry width="50" height="50" relative="1" as="geometry">
            <mxPoint x="352" y="274" as="sourcePoint" />
            <mxPoint x="402" y="224" as="targetPoint" />
          </mxGeometry>
        </mxCell>
        <mxCell id="H4lXw2sXraJY-aFSKDLj-4" value="4" style="text;html=1;align=center;verticalAlign=middle;whiteSpace=wrap;rounded=0;" parent="H4lXw2sXraJY-aFSKDLj-1" vertex="1">
          <mxGeometry x="14" y="5" width="63" height="26" as="geometry" />
        </mxCell>
        <mxCell id="z-FML763a0oy1dDiS_I2-1" value="" style="endArrow=classic;html=1;rounded=0;fontSize=12;startSize=8;endSize=8;curved=1;exitX=0;exitY=0.5;exitDx=0;exitDy=0;entryX=1;entryY=0.5;entryDx=0;entryDy=0;" parent="1" source="3px4NZemlOhLX4Ce7mVa-1" target="H4lXw2sXraJY-aFSKDLj-2" edge="1">
          <mxGeometry width="50" height="50" relative="1" as="geometry">
            <mxPoint x="143" y="111" as="sourcePoint" />
            <mxPoint x="193" y="61" as="targetPoint" />
          </mxGeometry>
        </mxCell>
        <mxCell id="z-FML763a0oy1dDiS_I2-2" value="Jobs" style="edgeLabel;html=1;align=center;verticalAlign=middle;resizable=0;points=[];fontSize=12;rotation=0;" parent="z-FML763a0oy1dDiS_I2-1" vertex="1" connectable="0">
          <mxGeometry x="-0.0189" y="2" relative="1" as="geometry">
            <mxPoint x="55" y="-16" as="offset" />
          </mxGeometry>
        </mxCell>
        <mxCell id="z-FML763a0oy1dDiS_I2-3" value="" style="endArrow=classic;html=1;rounded=0;fontSize=12;startSize=8;endSize=8;curved=1;exitX=0.5;exitY=1;exitDx=0;exitDy=0;entryX=0;entryY=0;entryDx=45;entryDy=0;entryPerimeter=0;" parent="1" source="H4lXw2sXraJY-aFSKDLj-2" target="962dw4XNeouLEIoYBmzk-14" edge="1">
          <mxGeometry width="50" height="50" relative="1" as="geometry">
            <mxPoint x="143" y="111" as="sourcePoint" />
            <mxPoint x="193" y="61" as="targetPoint" />
          </mxGeometry>
        </mxCell>
        <mxCell id="z-FML763a0oy1dDiS_I2-4" value="stats/analysis" style="edgeLabel;html=1;align=center;verticalAlign=middle;resizable=0;points=[];fontSize=12;" parent="z-FML763a0oy1dDiS_I2-3" vertex="1" connectable="0">
          <mxGeometry x="-0.0196" y="1" relative="1" as="geometry">
            <mxPoint as="offset" />
          </mxGeometry>
        </mxCell>
        <mxCell id="962dw4XNeouLEIoYBmzk-28" value="" style="endArrow=classic;startArrow=classic;html=1;rounded=0;fontSize=12;startSize=8;endSize=8;curved=1;exitX=0;exitY=0;exitDx=0;exitDy=0;entryX=1;entryY=0.5;entryDx=0;entryDy=0;" parent="1" source="wFwPcphP3-anJ34ma1Xt-8" target="962dw4XNeouLEIoYBmzk-7" edge="1">
          <mxGeometry width="50" height="50" relative="1" as="geometry">
            <mxPoint x="448" y="131" as="sourcePoint" />
            <mxPoint x="287" y="94" as="targetPoint" />
          </mxGeometry>
        </mxCell>
        <mxCell id="QJ_WMZtQK6DnBT9miJFS-3" value="Group" style="edgeLabel;html=1;align=center;verticalAlign=middle;resizable=0;points=[];fontSize=12;" parent="962dw4XNeouLEIoYBmzk-28" vertex="1" connectable="0">
          <mxGeometry x="0.5209" y="1" relative="1" as="geometry">
            <mxPoint x="17" y="-11" as="offset" />
          </mxGeometry>
        </mxCell>
        <mxCell id="962dw4XNeouLEIoYBmzk-29" value="" style="endArrow=classic;startArrow=classic;html=1;rounded=0;fontSize=12;startSize=8;endSize=8;exitX=1;exitY=0.5;exitDx=0;exitDy=0;entryX=0.5;entryY=1;entryDx=0;entryDy=0;edgeStyle=orthogonalEdgeStyle;" parent="1" source="962dw4XNeouLEIoYBmzk-11" target="wFwPcphP3-anJ34ma1Xt-8" edge="1">
          <mxGeometry width="50" height="50" relative="1" as="geometry">
            <mxPoint x="237" y="144" as="sourcePoint" />
            <mxPoint x="448" y="153.5" as="targetPoint" />
          </mxGeometry>
        </mxCell>
        <mxCell id="QJ_WMZtQK6DnBT9miJFS-5" value="Document" style="edgeLabel;html=1;align=center;verticalAlign=middle;resizable=0;points=[];fontSize=12;" parent="962dw4XNeouLEIoYBmzk-29" vertex="1" connectable="0">
          <mxGeometry x="-0.048" y="-1" relative="1" as="geometry">
            <mxPoint x="-85" y="-13" as="offset" />
          </mxGeometry>
        </mxCell>
        <mxCell id="QJ_WMZtQK6DnBT9miJFS-1" value="" style="endArrow=classic;startArrow=classic;html=1;rounded=0;fontSize=12;startSize=8;endSize=8;entryX=1;entryY=0.75;entryDx=0;entryDy=0;exitX=0.5;exitY=0;exitDx=0;exitDy=0;edgeStyle=orthogonalEdgeStyle;exitPerimeter=0;" parent="1" source="wFwPcphP3-anJ34ma1Xt-4" target="3px4NZemlOhLX4Ce7mVa-1" edge="1">
          <mxGeometry width="50" height="50" relative="1" as="geometry">
            <mxPoint x="448" y="108.5" as="sourcePoint" />
            <mxPoint x="399" y="16" as="targetPoint" />
          </mxGeometry>
        </mxCell>
        <mxCell id="QJ_WMZtQK6DnBT9miJFS-2" value="Job" style="edgeLabel;html=1;align=center;verticalAlign=middle;resizable=0;points=[];fontSize=12;" parent="QJ_WMZtQK6DnBT9miJFS-1" vertex="1" connectable="0">
          <mxGeometry x="0.1095" relative="1" as="geometry">
            <mxPoint x="-84" y="-11" as="offset" />
          </mxGeometry>
        </mxCell>
        <mxCell id="xrO_U5HpCgTilkc1WAlx-1" value="" style="group" parent="1" vertex="1" connectable="0">
          <mxGeometry x="-311" y="263" width="100" height="117" as="geometry" />
        </mxCell>
        <mxCell id="xrO_U5HpCgTilkc1WAlx-2" value="LOGIN" style="rounded=1;whiteSpace=wrap;html=1;absoluteArcSize=1;arcSize=14;strokeWidth=2;" parent="xrO_U5HpCgTilkc1WAlx-1" vertex="1">
          <mxGeometry width="100" height="117" as="geometry" />
        </mxCell>
        <mxCell id="xrO_U5HpCgTilkc1WAlx-3" value="" style="endArrow=none;html=1;rounded=0;fontSize=12;startSize=8;endSize=8;curved=1;exitX=0;exitY=0.25;exitDx=0;exitDy=0;entryX=1;entryY=0.25;entryDx=0;entryDy=0;" parent="xrO_U5HpCgTilkc1WAlx-1" source="xrO_U5HpCgTilkc1WAlx-2" target="xrO_U5HpCgTilkc1WAlx-2" edge="1">
          <mxGeometry width="50" height="50" relative="1" as="geometry">
            <mxPoint x="352" y="274" as="sourcePoint" />
            <mxPoint x="402" y="224" as="targetPoint" />
          </mxGeometry>
        </mxCell>
        <mxCell id="xrO_U5HpCgTilkc1WAlx-4" value="5" style="text;html=1;align=center;verticalAlign=middle;whiteSpace=wrap;rounded=0;" parent="xrO_U5HpCgTilkc1WAlx-1" vertex="1">
          <mxGeometry x="14" y="5" width="63" height="26" as="geometry" />
        </mxCell>
        <mxCell id="xrO_U5HpCgTilkc1WAlx-5" value="" style="group" parent="1" vertex="1" connectable="0">
          <mxGeometry x="-142" y="263" width="100" height="117" as="geometry" />
        </mxCell>
        <mxCell id="xrO_U5HpCgTilkc1WAlx-6" value="REGISTER" style="rounded=1;whiteSpace=wrap;html=1;absoluteArcSize=1;arcSize=14;strokeWidth=2;" parent="xrO_U5HpCgTilkc1WAlx-5" vertex="1">
          <mxGeometry width="100" height="117" as="geometry" />
        </mxCell>
        <mxCell id="xrO_U5HpCgTilkc1WAlx-7" value="" style="endArrow=none;html=1;rounded=0;fontSize=12;startSize=8;endSize=8;curved=1;exitX=0;exitY=0.25;exitDx=0;exitDy=0;entryX=1;entryY=0.25;entryDx=0;entryDy=0;" parent="xrO_U5HpCgTilkc1WAlx-5" source="xrO_U5HpCgTilkc1WAlx-6" target="xrO_U5HpCgTilkc1WAlx-6" edge="1">
          <mxGeometry width="50" height="50" relative="1" as="geometry">
            <mxPoint x="352" y="274" as="sourcePoint" />
            <mxPoint x="402" y="224" as="targetPoint" />
          </mxGeometry>
        </mxCell>
        <mxCell id="xrO_U5HpCgTilkc1WAlx-8" value="6" style="text;html=1;align=center;verticalAlign=middle;whiteSpace=wrap;rounded=0;" parent="xrO_U5HpCgTilkc1WAlx-5" vertex="1">
          <mxGeometry x="14" y="5" width="63" height="26" as="geometry" />
        </mxCell>
        <mxCell id="xrO_U5HpCgTilkc1WAlx-9" value="" style="endArrow=classic;html=1;rounded=0;exitX=0;exitY=0;exitDx=0;exitDy=67.5;exitPerimeter=0;entryX=0.5;entryY=0;entryDx=0;entryDy=0;edgeStyle=orthogonalEdgeStyle;" parent="1" source="962dw4XNeouLEIoYBmzk-14" target="xrO_U5HpCgTilkc1WAlx-2" edge="1">
          <mxGeometry width="50" height="50" relative="1" as="geometry">
            <mxPoint x="180" y="221" as="sourcePoint" />
            <mxPoint x="230" y="171" as="targetPoint" />
          </mxGeometry>
        </mxCell>
        <mxCell id="xrO_U5HpCgTilkc1WAlx-12" value="email/&lt;div&gt;password&lt;/div&gt;" style="edgeLabel;html=1;align=center;verticalAlign=middle;resizable=0;points=[];" parent="xrO_U5HpCgTilkc1WAlx-9" vertex="1" connectable="0">
          <mxGeometry x="0.1092" relative="1" as="geometry">
            <mxPoint x="2" y="64" as="offset" />
          </mxGeometry>
        </mxCell>
        <mxCell id="xrO_U5HpCgTilkc1WAlx-10" value="" style="endArrow=classic;html=1;rounded=0;exitX=0;exitY=0;exitDx=32.5;exitDy=100;exitPerimeter=0;entryX=0.5;entryY=0;entryDx=0;entryDy=0;" parent="1" source="962dw4XNeouLEIoYBmzk-14" target="xrO_U5HpCgTilkc1WAlx-6" edge="1">
          <mxGeometry width="50" height="50" relative="1" as="geometry">
            <mxPoint x="-83" y="186" as="sourcePoint" />
            <mxPoint x="-175" y="273" as="targetPoint" />
          </mxGeometry>
        </mxCell>
        <mxCell id="xrO_U5HpCgTilkc1WAlx-18" value="email/&lt;div&gt;password/&lt;/div&gt;&lt;div&gt;name&lt;/div&gt;" style="edgeLabel;html=1;align=center;verticalAlign=middle;resizable=0;points=[];" parent="xrO_U5HpCgTilkc1WAlx-10" vertex="1" connectable="0">
          <mxGeometry x="-0.1494" relative="1" as="geometry">
            <mxPoint as="offset" />
          </mxGeometry>
        </mxCell>
        <mxCell id="N1lg3g9wR33eUjkyPGlK-2" value="" style="endArrow=classic;html=1;rounded=0;exitX=0.25;exitY=1;exitDx=0;exitDy=0;entryX=0.695;entryY=0.563;entryDx=0;entryDy=0;entryPerimeter=0;edgeStyle=orthogonalEdgeStyle;" edge="1" parent="1" source="xrO_U5HpCgTilkc1WAlx-2" target="wFwPcphP3-anJ34ma1Xt-7">
          <mxGeometry width="50" height="50" relative="1" as="geometry">
            <mxPoint x="63" y="162" as="sourcePoint" />
            <mxPoint x="113" y="112" as="targetPoint" />
            <Array as="points">
              <mxPoint x="-286" y="465" />
              <mxPoint x="500" y="465" />
            </Array>
          </mxGeometry>
        </mxCell>
        <mxCell id="N1lg3g9wR33eUjkyPGlK-3" value="auth.login() request" style="edgeLabel;html=1;align=center;verticalAlign=middle;resizable=0;points=[];" vertex="1" connectable="0" parent="N1lg3g9wR33eUjkyPGlK-2">
          <mxGeometry x="-0.8335" y="6" relative="1" as="geometry">
            <mxPoint x="37" y="-5" as="offset" />
          </mxGeometry>
        </mxCell>
        <mxCell id="N1lg3g9wR33eUjkyPGlK-4" value="" style="endArrow=classic;html=1;rounded=0;exitX=0.421;exitY=0.703;exitDx=0;exitDy=0;exitPerimeter=0;entryX=0.75;entryY=1;entryDx=0;entryDy=0;edgeStyle=orthogonalEdgeStyle;" edge="1" parent="1" source="wFwPcphP3-anJ34ma1Xt-7" target="xrO_U5HpCgTilkc1WAlx-2">
          <mxGeometry width="50" height="50" relative="1" as="geometry">
            <mxPoint x="63" y="162" as="sourcePoint" />
            <mxPoint x="113" y="112" as="targetPoint" />
            <Array as="points">
              <mxPoint x="484" y="433" />
              <mxPoint x="-236" y="433" />
            </Array>
          </mxGeometry>
        </mxCell>
        <mxCell id="N1lg3g9wR33eUjkyPGlK-5" value="JWT" style="edgeLabel;html=1;align=center;verticalAlign=middle;resizable=0;points=[];" vertex="1" connectable="0" parent="N1lg3g9wR33eUjkyPGlK-4">
          <mxGeometry x="0.8269" y="-5" relative="1" as="geometry">
            <mxPoint x="-23" y="-6" as="offset" />
          </mxGeometry>
        </mxCell>
      </root>
    </mxGraphModel>
  </diagram>
  <diagram id="eX0ATs62yXGmfWsTlrPb" name="dfd1-ManageJobs">
    <mxGraphModel dx="1826" dy="1147" grid="0" gridSize="10" guides="1" tooltips="1" connect="1" arrows="1" fold="1" page="0" pageScale="1" pageWidth="850" pageHeight="1100" math="0" shadow="0">
      <root>
        <mxCell id="0" />
        <mxCell id="1" parent="0" />
        <mxCell id="xwBMroZ95LkxdXp0K7IZ-1" value="&lt;b&gt;&lt;font style=&quot;font-size: 18px;&quot;&gt;Busybee - DFD 1&lt;/font&gt;&lt;/b&gt;&lt;div&gt;&lt;b&gt;&lt;font style=&quot;font-size: 18px;&quot;&gt;MANAGE JOBS&lt;/font&gt;&lt;/b&gt;&lt;/div&gt;" style="text;html=1;align=center;verticalAlign=middle;whiteSpace=wrap;rounded=0;" parent="1" vertex="1">
          <mxGeometry x="-123" y="-224" width="656" height="42" as="geometry" />
        </mxCell>
        <mxCell id="5UGCQz2hlRz7Xvx5qjS6-1" value="" style="group" parent="1" vertex="1" connectable="0">
          <mxGeometry x="142" y="-163" width="100" height="117" as="geometry" />
        </mxCell>
        <mxCell id="5UGCQz2hlRz7Xvx5qjS6-2" value="CREATE JOB" style="rounded=1;whiteSpace=wrap;html=1;absoluteArcSize=1;arcSize=14;strokeWidth=2;" parent="5UGCQz2hlRz7Xvx5qjS6-1" vertex="1">
          <mxGeometry width="100" height="117" as="geometry" />
        </mxCell>
        <mxCell id="5UGCQz2hlRz7Xvx5qjS6-3" value="" style="endArrow=none;html=1;rounded=0;fontSize=12;startSize=8;endSize=8;curved=1;exitX=0;exitY=0.25;exitDx=0;exitDy=0;entryX=1;entryY=0.25;entryDx=0;entryDy=0;" parent="5UGCQz2hlRz7Xvx5qjS6-1" source="5UGCQz2hlRz7Xvx5qjS6-2" target="5UGCQz2hlRz7Xvx5qjS6-2" edge="1">
          <mxGeometry width="50" height="50" relative="1" as="geometry">
            <mxPoint x="352" y="274" as="sourcePoint" />
            <mxPoint x="402" y="224" as="targetPoint" />
          </mxGeometry>
        </mxCell>
        <mxCell id="5UGCQz2hlRz7Xvx5qjS6-4" value="1.1" style="text;html=1;align=center;verticalAlign=middle;whiteSpace=wrap;rounded=0;" parent="5UGCQz2hlRz7Xvx5qjS6-1" vertex="1">
          <mxGeometry x="14" y="5" width="63" height="26" as="geometry" />
        </mxCell>
        <mxCell id="o_gEj-Y0KqhunD_vnYo_-1" value="User" style="html=1;dashed=0;whiteSpace=wrap;shape=mxgraph.dfd.externalEntity" parent="1" vertex="1">
          <mxGeometry x="-180" y="76" width="100" height="100" as="geometry" />
        </mxCell>
        <mxCell id="Ar5s7_voklD8jbiESg77-1" value="" style="group" parent="1" vertex="1" connectable="0">
          <mxGeometry x="501" y="69" width="145" height="103" as="geometry" />
        </mxCell>
        <mxCell id="Ar5s7_voklD8jbiESg77-2" value="" style="group" parent="Ar5s7_voklD8jbiESg77-1" vertex="1" connectable="0">
          <mxGeometry y="32" width="145" height="71" as="geometry" />
        </mxCell>
        <mxCell id="Ar5s7_voklD8jbiESg77-3" value="" style="rounded=0;whiteSpace=wrap;html=1;" parent="Ar5s7_voklD8jbiESg77-2" vertex="1">
          <mxGeometry x="-12" y="-7" width="157" height="77" as="geometry" />
        </mxCell>
        <mxCell id="Ar5s7_voklD8jbiESg77-4" value="" style="shape=cylinder3;whiteSpace=wrap;html=1;boundedLbl=1;backgroundOutline=1;size=15;" parent="Ar5s7_voklD8jbiESg77-2" vertex="1">
          <mxGeometry x="2" y="11" width="53.5" height="48" as="geometry" />
        </mxCell>
        <mxCell id="Ar5s7_voklD8jbiESg77-5" value="&lt;font style=&quot;font-size: 9px;&quot;&gt;Postgres&lt;/font&gt;" style="text;html=1;align=center;verticalAlign=middle;whiteSpace=wrap;rounded=0;" parent="Ar5s7_voklD8jbiESg77-2" vertex="1">
          <mxGeometry x="-1.25" y="32" width="60" height="30" as="geometry" />
        </mxCell>
        <mxCell id="Ar5s7_voklD8jbiESg77-6" value="" style="group" parent="Ar5s7_voklD8jbiESg77-2" vertex="1" connectable="0">
          <mxGeometry x="93" y="12" width="59" height="64" as="geometry" />
        </mxCell>
        <mxCell id="Ar5s7_voklD8jbiESg77-7" value="" style="sketch=0;outlineConnect=0;fontColor=#232F3E;gradientColor=none;strokeColor=#232F3E;fillColor=#ffffff;dashed=0;verticalLabelPosition=bottom;verticalAlign=top;align=center;html=1;fontSize=12;fontStyle=0;aspect=fixed;shape=mxgraph.aws4.resourceIcon;resIcon=mxgraph.aws4.data_encryption_key;" parent="Ar5s7_voklD8jbiESg77-6" vertex="1">
          <mxGeometry x="3.933333333333333" width="47.542857142857144" height="47.542857142857144" as="geometry" />
        </mxCell>
        <mxCell id="Ar5s7_voklD8jbiESg77-8" value="&lt;font style=&quot;font-size: 9px;&quot;&gt;Auth&lt;/font&gt;" style="text;html=1;align=center;verticalAlign=middle;whiteSpace=wrap;rounded=0;" parent="Ar5s7_voklD8jbiESg77-6" vertex="1">
          <mxGeometry y="36.57142857142857" width="59" height="27.428571428571427" as="geometry" />
        </mxCell>
        <mxCell id="Ar5s7_voklD8jbiESg77-9" value="Supabase" style="text;html=1;align=center;verticalAlign=middle;whiteSpace=wrap;rounded=0;" parent="Ar5s7_voklD8jbiESg77-2" vertex="1">
          <mxGeometry x="53" y="-9" width="54.87" height="25.09" as="geometry" />
        </mxCell>
        <mxCell id="Ar5s7_voklD8jbiESg77-10" style="edgeStyle=none;curved=1;rounded=0;orthogonalLoop=1;jettySize=auto;html=1;entryX=0;entryY=0;entryDx=45;entryDy=0;entryPerimeter=0;fontSize=12;startSize=8;endSize=8;" parent="Ar5s7_voklD8jbiESg77-1" edge="1">
          <mxGeometry relative="1" as="geometry">
            <mxPoint x="95.00000000000023" as="sourcePoint" />
            <mxPoint x="95.00000000000023" as="targetPoint" />
          </mxGeometry>
        </mxCell>
        <mxCell id="k9d96W4KOObT4GJbrfJA-2" value="" style="group" parent="1" vertex="1" connectable="0">
          <mxGeometry x="142" y="-6" width="100" height="117" as="geometry" />
        </mxCell>
        <mxCell id="k9d96W4KOObT4GJbrfJA-3" value="VIEW JOB" style="rounded=1;whiteSpace=wrap;html=1;absoluteArcSize=1;arcSize=14;strokeWidth=2;" parent="k9d96W4KOObT4GJbrfJA-2" vertex="1">
          <mxGeometry width="100" height="117" as="geometry" />
        </mxCell>
        <mxCell id="k9d96W4KOObT4GJbrfJA-4" value="" style="endArrow=none;html=1;rounded=0;fontSize=12;startSize=8;endSize=8;curved=1;exitX=0;exitY=0.25;exitDx=0;exitDy=0;entryX=1;entryY=0.25;entryDx=0;entryDy=0;" parent="k9d96W4KOObT4GJbrfJA-2" source="k9d96W4KOObT4GJbrfJA-3" target="k9d96W4KOObT4GJbrfJA-3" edge="1">
          <mxGeometry width="50" height="50" relative="1" as="geometry">
            <mxPoint x="352" y="274" as="sourcePoint" />
            <mxPoint x="402" y="224" as="targetPoint" />
          </mxGeometry>
        </mxCell>
        <mxCell id="k9d96W4KOObT4GJbrfJA-5" value="1.2" style="text;html=1;align=center;verticalAlign=middle;whiteSpace=wrap;rounded=0;" parent="k9d96W4KOObT4GJbrfJA-2" vertex="1">
          <mxGeometry x="14" y="5" width="63" height="26" as="geometry" />
        </mxCell>
        <mxCell id="k9d96W4KOObT4GJbrfJA-6" value="" style="group" parent="1" vertex="1" connectable="0">
          <mxGeometry x="142" y="153" width="100" height="117" as="geometry" />
        </mxCell>
        <mxCell id="k9d96W4KOObT4GJbrfJA-7" value="UPDATE JOB" style="rounded=1;whiteSpace=wrap;html=1;absoluteArcSize=1;arcSize=14;strokeWidth=2;" parent="k9d96W4KOObT4GJbrfJA-6" vertex="1">
          <mxGeometry width="100" height="117" as="geometry" />
        </mxCell>
        <mxCell id="k9d96W4KOObT4GJbrfJA-8" value="" style="endArrow=none;html=1;rounded=0;fontSize=12;startSize=8;endSize=8;curved=1;exitX=0;exitY=0.25;exitDx=0;exitDy=0;entryX=1;entryY=0.25;entryDx=0;entryDy=0;" parent="k9d96W4KOObT4GJbrfJA-6" source="k9d96W4KOObT4GJbrfJA-7" target="k9d96W4KOObT4GJbrfJA-7" edge="1">
          <mxGeometry width="50" height="50" relative="1" as="geometry">
            <mxPoint x="352" y="274" as="sourcePoint" />
            <mxPoint x="402" y="224" as="targetPoint" />
          </mxGeometry>
        </mxCell>
        <mxCell id="k9d96W4KOObT4GJbrfJA-9" value="1.3" style="text;html=1;align=center;verticalAlign=middle;whiteSpace=wrap;rounded=0;" parent="k9d96W4KOObT4GJbrfJA-6" vertex="1">
          <mxGeometry x="14" y="5" width="63" height="26" as="geometry" />
        </mxCell>
        <mxCell id="k9d96W4KOObT4GJbrfJA-10" value="" style="group" parent="1" vertex="1" connectable="0">
          <mxGeometry x="142" y="320" width="100" height="117" as="geometry" />
        </mxCell>
        <mxCell id="k9d96W4KOObT4GJbrfJA-11" value="DELETE JOB" style="rounded=1;whiteSpace=wrap;html=1;absoluteArcSize=1;arcSize=14;strokeWidth=2;" parent="k9d96W4KOObT4GJbrfJA-10" vertex="1">
          <mxGeometry width="100" height="117" as="geometry" />
        </mxCell>
        <mxCell id="k9d96W4KOObT4GJbrfJA-12" value="" style="endArrow=none;html=1;rounded=0;fontSize=12;startSize=8;endSize=8;curved=1;exitX=0;exitY=0.25;exitDx=0;exitDy=0;entryX=1;entryY=0.25;entryDx=0;entryDy=0;" parent="k9d96W4KOObT4GJbrfJA-10" source="k9d96W4KOObT4GJbrfJA-11" target="k9d96W4KOObT4GJbrfJA-11" edge="1">
          <mxGeometry width="50" height="50" relative="1" as="geometry">
            <mxPoint x="352" y="274" as="sourcePoint" />
            <mxPoint x="402" y="224" as="targetPoint" />
          </mxGeometry>
        </mxCell>
        <mxCell id="k9d96W4KOObT4GJbrfJA-13" value="1.4" style="text;html=1;align=center;verticalAlign=middle;whiteSpace=wrap;rounded=0;" parent="k9d96W4KOObT4GJbrfJA-10" vertex="1">
          <mxGeometry x="14" y="5" width="63" height="26" as="geometry" />
        </mxCell>
        <mxCell id="k9d96W4KOObT4GJbrfJA-14" value="" style="endArrow=classic;html=1;rounded=0;fontSize=12;startSize=8;endSize=8;exitX=0;exitY=0.5;exitDx=0;exitDy=0;entryX=0;entryY=0;entryDx=100;entryDy=32.5;entryPerimeter=0;edgeStyle=orthogonalEdgeStyle;" parent="1" source="k9d96W4KOObT4GJbrfJA-3" target="o_gEj-Y0KqhunD_vnYo_-1" edge="1">
          <mxGeometry width="50" height="50" relative="1" as="geometry">
            <mxPoint x="142" y="115" as="sourcePoint" />
            <mxPoint x="-80" y="148.5" as="targetPoint" />
          </mxGeometry>
        </mxCell>
        <mxCell id="k9d96W4KOObT4GJbrfJA-19" value="Job details" style="edgeLabel;html=1;align=center;verticalAlign=middle;resizable=0;points=[];fontSize=12;" parent="k9d96W4KOObT4GJbrfJA-14" vertex="1" connectable="0">
          <mxGeometry x="-0.5755" y="1" relative="1" as="geometry">
            <mxPoint x="18" y="-10" as="offset" />
          </mxGeometry>
        </mxCell>
        <mxCell id="k9d96W4KOObT4GJbrfJA-15" value="" style="endArrow=classic;html=1;rounded=0;fontSize=12;startSize=8;endSize=8;exitX=0;exitY=0;exitDx=100;exitDy=55;exitPerimeter=0;entryX=0;entryY=0.25;entryDx=0;entryDy=0;edgeStyle=orthogonalEdgeStyle;" parent="1" source="o_gEj-Y0KqhunD_vnYo_-1" target="k9d96W4KOObT4GJbrfJA-7" edge="1">
          <mxGeometry width="50" height="50" relative="1" as="geometry">
            <mxPoint x="175" y="210" as="sourcePoint" />
            <mxPoint x="225" y="160" as="targetPoint" />
          </mxGeometry>
        </mxCell>
        <mxCell id="k9d96W4KOObT4GJbrfJA-20" value="Job Id/&lt;div&gt;updated job fields&lt;/div&gt;" style="edgeLabel;html=1;align=right;verticalAlign=middle;resizable=0;points=[];fontSize=12;" parent="k9d96W4KOObT4GJbrfJA-15" vertex="1" connectable="0">
          <mxGeometry x="0.6214" y="-2" relative="1" as="geometry">
            <mxPoint x="39" y="-21" as="offset" />
          </mxGeometry>
        </mxCell>
        <mxCell id="k9d96W4KOObT4GJbrfJA-16" value="" style="endArrow=classic;html=1;rounded=0;fontSize=12;startSize=8;endSize=8;exitX=0;exitY=0;exitDx=55;exitDy=100;exitPerimeter=0;entryX=0;entryY=0.5;entryDx=0;entryDy=0;edgeStyle=orthogonalEdgeStyle;" parent="1" source="o_gEj-Y0KqhunD_vnYo_-1" target="k9d96W4KOObT4GJbrfJA-11" edge="1">
          <mxGeometry width="50" height="50" relative="1" as="geometry">
            <mxPoint x="175" y="210" as="sourcePoint" />
            <mxPoint x="225" y="160" as="targetPoint" />
          </mxGeometry>
        </mxCell>
        <mxCell id="k9d96W4KOObT4GJbrfJA-21" value="Job ID" style="edgeLabel;html=1;align=center;verticalAlign=middle;resizable=0;points=[];fontSize=12;" parent="k9d96W4KOObT4GJbrfJA-16" vertex="1" connectable="0">
          <mxGeometry x="0.7188" y="-1" relative="1" as="geometry">
            <mxPoint x="35" y="-11" as="offset" />
          </mxGeometry>
        </mxCell>
        <mxCell id="k9d96W4KOObT4GJbrfJA-17" value="" style="endArrow=classic;html=1;rounded=0;fontSize=12;startSize=8;endSize=8;exitX=0;exitY=0;exitDx=45;exitDy=0;exitPerimeter=0;entryX=0;entryY=0.25;entryDx=0;entryDy=0;edgeStyle=orthogonalEdgeStyle;" parent="1" source="o_gEj-Y0KqhunD_vnYo_-1" target="5UGCQz2hlRz7Xvx5qjS6-2" edge="1">
          <mxGeometry width="50" height="50" relative="1" as="geometry">
            <mxPoint x="-115" y="186" as="sourcePoint" />
            <mxPoint x="152" y="389" as="targetPoint" />
          </mxGeometry>
        </mxCell>
        <mxCell id="k9d96W4KOObT4GJbrfJA-18" value="job details" style="edgeLabel;html=1;align=center;verticalAlign=middle;resizable=0;points=[];fontSize=12;" parent="k9d96W4KOObT4GJbrfJA-17" vertex="1" connectable="0">
          <mxGeometry x="-0.0317" relative="1" as="geometry">
            <mxPoint x="210" y="-11" as="offset" />
          </mxGeometry>
        </mxCell>
        <mxCell id="k9d96W4KOObT4GJbrfJA-29" value="" style="endArrow=classic;html=1;rounded=0;fontSize=12;startSize=8;endSize=8;exitX=1;exitY=0.5;exitDx=0;exitDy=0;entryX=0.5;entryY=1;entryDx=0;entryDy=0;edgeStyle=orthogonalEdgeStyle;" parent="1" source="k9d96W4KOObT4GJbrfJA-11" target="Ar5s7_voklD8jbiESg77-5" edge="1">
          <mxGeometry width="50" height="50" relative="1" as="geometry">
            <mxPoint x="175" y="210" as="sourcePoint" />
            <mxPoint x="225" y="160" as="targetPoint" />
          </mxGeometry>
        </mxCell>
        <mxCell id="k9d96W4KOObT4GJbrfJA-30" value="delete Job query" style="edgeLabel;html=1;align=center;verticalAlign=middle;resizable=0;points=[];fontSize=12;" parent="k9d96W4KOObT4GJbrfJA-29" vertex="1" connectable="0">
          <mxGeometry x="-0.841" relative="1" as="geometry">
            <mxPoint x="8" y="-12" as="offset" />
          </mxGeometry>
        </mxCell>
        <mxCell id="k9d96W4KOObT4GJbrfJA-33" value="" style="endArrow=classic;html=1;rounded=0;fontSize=12;startSize=8;endSize=8;exitX=1;exitY=0.25;exitDx=0;exitDy=0;entryX=0.673;entryY=-0.021;entryDx=0;entryDy=0;entryPerimeter=0;edgeStyle=orthogonalEdgeStyle;" parent="1" source="5UGCQz2hlRz7Xvx5qjS6-2" target="Ar5s7_voklD8jbiESg77-4" edge="1">
          <mxGeometry width="50" height="50" relative="1" as="geometry">
            <mxPoint x="255" y="-75.25" as="sourcePoint" />
            <mxPoint x="523.7575000000002" y="116.34999999999991" as="targetPoint" />
          </mxGeometry>
        </mxCell>
        <mxCell id="k9d96W4KOObT4GJbrfJA-45" value="insert Job query" style="edgeLabel;html=1;align=center;verticalAlign=middle;resizable=0;points=[];fontSize=12;" parent="k9d96W4KOObT4GJbrfJA-33" vertex="1" connectable="0">
          <mxGeometry x="-0.8479" relative="1" as="geometry">
            <mxPoint x="5" y="-11" as="offset" />
          </mxGeometry>
        </mxCell>
        <mxCell id="k9d96W4KOObT4GJbrfJA-34" value="" style="endArrow=classic;html=1;rounded=0;fontSize=12;startSize=8;endSize=8;exitX=0.28;exitY=0;exitDx=0;exitDy=0;entryX=1;entryY=0.75;entryDx=0;entryDy=0;edgeStyle=orthogonalEdgeStyle;exitPerimeter=0;" parent="1" source="Ar5s7_voklD8jbiESg77-4" target="5UGCQz2hlRz7Xvx5qjS6-2" edge="1">
          <mxGeometry width="50" height="50" relative="1" as="geometry">
            <mxPoint x="361" y="-146" as="sourcePoint" />
            <mxPoint x="630" y="45" as="targetPoint" />
          </mxGeometry>
        </mxCell>
        <mxCell id="k9d96W4KOObT4GJbrfJA-35" value="Job record" style="edgeLabel;html=1;align=center;verticalAlign=middle;resizable=0;points=[];fontSize=12;" parent="k9d96W4KOObT4GJbrfJA-34" vertex="1" connectable="0">
          <mxGeometry x="0.8238" y="2" relative="1" as="geometry">
            <mxPoint y="-13" as="offset" />
          </mxGeometry>
        </mxCell>
        <mxCell id="k9d96W4KOObT4GJbrfJA-36" value="" style="endArrow=classic;html=1;rounded=0;fontSize=12;startSize=8;endSize=8;exitX=0;exitY=0.75;exitDx=0;exitDy=0;entryX=0;entryY=0;entryDx=67.5;entryDy=0;entryPerimeter=0;edgeStyle=orthogonalEdgeStyle;" parent="1" source="5UGCQz2hlRz7Xvx5qjS6-2" target="o_gEj-Y0KqhunD_vnYo_-1" edge="1">
          <mxGeometry width="50" height="50" relative="1" as="geometry">
            <mxPoint x="175" y="110" as="sourcePoint" />
            <mxPoint x="225" y="60" as="targetPoint" />
          </mxGeometry>
        </mxCell>
        <mxCell id="k9d96W4KOObT4GJbrfJA-37" value="confirmation/&lt;div&gt;new Job&lt;/div&gt;" style="edgeLabel;html=1;align=right;verticalAlign=middle;resizable=0;points=[];fontSize=12;" parent="k9d96W4KOObT4GJbrfJA-36" vertex="1" connectable="0">
          <mxGeometry x="-0.4774" y="1" relative="1" as="geometry">
            <mxPoint x="101" y="-19" as="offset" />
          </mxGeometry>
        </mxCell>
        <mxCell id="k9d96W4KOObT4GJbrfJA-38" value="" style="endArrow=classic;html=1;rounded=0;fontSize=12;startSize=8;endSize=8;exitX=0;exitY=0;exitDx=100;exitDy=10;exitPerimeter=0;entryX=0;entryY=0.25;entryDx=0;entryDy=0;edgeStyle=orthogonalEdgeStyle;" parent="1" source="o_gEj-Y0KqhunD_vnYo_-1" target="k9d96W4KOObT4GJbrfJA-3" edge="1">
          <mxGeometry width="50" height="50" relative="1" as="geometry">
            <mxPoint x="-80" y="85.75" as="sourcePoint" />
            <mxPoint x="142" y="59" as="targetPoint" />
            <Array as="points">
              <mxPoint x="17" y="86" />
              <mxPoint x="17" y="23" />
            </Array>
          </mxGeometry>
        </mxCell>
        <mxCell id="k9d96W4KOObT4GJbrfJA-39" value="Job ID" style="edgeLabel;html=1;align=center;verticalAlign=middle;resizable=0;points=[];fontSize=12;" parent="k9d96W4KOObT4GJbrfJA-38" vertex="1" connectable="0">
          <mxGeometry x="0.6018" y="1" relative="1" as="geometry">
            <mxPoint x="25" y="-8" as="offset" />
          </mxGeometry>
        </mxCell>
        <mxCell id="k9d96W4KOObT4GJbrfJA-40" value="" style="endArrow=classic;html=1;rounded=0;fontSize=12;startSize=8;endSize=8;exitX=0;exitY=0.75;exitDx=0;exitDy=0;entryX=0;entryY=0;entryDx=100;entryDy=77.5;entryPerimeter=0;edgeStyle=orthogonalEdgeStyle;" parent="1" source="k9d96W4KOObT4GJbrfJA-7" target="o_gEj-Y0KqhunD_vnYo_-1" edge="1">
          <mxGeometry width="50" height="50" relative="1" as="geometry">
            <mxPoint x="180" y="210" as="sourcePoint" />
            <mxPoint x="230" y="160" as="targetPoint" />
            <Array as="points">
              <mxPoint x="17" y="241" />
              <mxPoint x="17" y="154" />
            </Array>
          </mxGeometry>
        </mxCell>
        <mxCell id="k9d96W4KOObT4GJbrfJA-41" value="confirmation/&lt;div&gt;updated Job&lt;/div&gt;" style="edgeLabel;html=1;align=right;verticalAlign=middle;resizable=0;points=[];fontSize=12;" parent="k9d96W4KOObT4GJbrfJA-40" vertex="1" connectable="0">
          <mxGeometry x="-0.6185" y="-3" relative="1" as="geometry">
            <mxPoint x="53" y="-15" as="offset" />
          </mxGeometry>
        </mxCell>
        <mxCell id="k9d96W4KOObT4GJbrfJA-46" value="" style="endArrow=classic;html=1;rounded=0;fontSize=12;startSize=8;endSize=8;exitX=1;exitY=0.25;exitDx=0;exitDy=0;entryX=0;entryY=0;entryDx=0;entryDy=15;entryPerimeter=0;edgeStyle=orthogonalEdgeStyle;" parent="1" source="k9d96W4KOObT4GJbrfJA-3" target="Ar5s7_voklD8jbiESg77-4" edge="1">
          <mxGeometry width="50" height="50" relative="1" as="geometry">
            <mxPoint x="182" y="210" as="sourcePoint" />
            <mxPoint x="232" y="160" as="targetPoint" />
            <Array as="points">
              <mxPoint x="390" y="23" />
              <mxPoint x="390" y="127" />
            </Array>
          </mxGeometry>
        </mxCell>
        <mxCell id="k9d96W4KOObT4GJbrfJA-48" value="select Job query" style="edgeLabel;html=1;align=center;verticalAlign=middle;resizable=0;points=[];fontSize=12;" parent="k9d96W4KOObT4GJbrfJA-46" vertex="1" connectable="0">
          <mxGeometry x="-0.83" y="-1" relative="1" as="geometry">
            <mxPoint x="14" y="-12" as="offset" />
          </mxGeometry>
        </mxCell>
        <mxCell id="k9d96W4KOObT4GJbrfJA-47" value="" style="endArrow=classic;html=1;rounded=0;fontSize=12;startSize=8;endSize=8;exitX=0;exitY=0;exitDx=0;exitDy=19.5;entryX=1;entryY=0.5;entryDx=0;entryDy=0;edgeStyle=orthogonalEdgeStyle;exitPerimeter=0;" parent="1" source="Ar5s7_voklD8jbiESg77-4" target="k9d96W4KOObT4GJbrfJA-3" edge="1">
          <mxGeometry width="50" height="50" relative="1" as="geometry">
            <mxPoint x="252" y="33" as="sourcePoint" />
            <mxPoint x="513" y="137" as="targetPoint" />
            <Array as="points">
              <mxPoint x="362" y="132" />
              <mxPoint x="362" y="52" />
            </Array>
          </mxGeometry>
        </mxCell>
        <mxCell id="k9d96W4KOObT4GJbrfJA-49" value="Job record" style="edgeLabel;html=1;align=center;verticalAlign=middle;resizable=0;points=[];fontSize=12;" parent="k9d96W4KOObT4GJbrfJA-47" vertex="1" connectable="0">
          <mxGeometry x="0.6761" y="2" relative="1" as="geometry">
            <mxPoint x="-15" y="-13" as="offset" />
          </mxGeometry>
        </mxCell>
        <mxCell id="k9d96W4KOObT4GJbrfJA-50" value="" style="endArrow=classic;html=1;rounded=0;fontSize=12;startSize=8;endSize=8;exitX=1;exitY=0.25;exitDx=0;exitDy=0;entryX=0;entryY=0;entryDx=0;entryDy=28.5;edgeStyle=orthogonalEdgeStyle;entryPerimeter=0;" parent="1" source="k9d96W4KOObT4GJbrfJA-7" target="Ar5s7_voklD8jbiESg77-4" edge="1">
          <mxGeometry width="50" height="50" relative="1" as="geometry">
            <mxPoint x="182" y="310" as="sourcePoint" />
            <mxPoint x="232" y="260" as="targetPoint" />
            <Array as="points">
              <mxPoint x="362" y="182" />
              <mxPoint x="362" y="140" />
            </Array>
          </mxGeometry>
        </mxCell>
        <mxCell id="k9d96W4KOObT4GJbrfJA-51" value="update Job query" style="edgeLabel;html=1;align=center;verticalAlign=middle;resizable=0;points=[];fontSize=12;" parent="k9d96W4KOObT4GJbrfJA-50" vertex="1" connectable="0">
          <mxGeometry x="-0.8973" y="-1" relative="1" as="geometry">
            <mxPoint x="33" y="-11" as="offset" />
          </mxGeometry>
        </mxCell>
        <mxCell id="k9d96W4KOObT4GJbrfJA-52" value="" style="endArrow=classic;html=1;rounded=0;fontSize=12;startSize=8;endSize=8;exitX=0;exitY=0.5;exitDx=0;exitDy=0;entryX=1;entryY=0.75;entryDx=0;entryDy=0;edgeStyle=orthogonalEdgeStyle;" parent="1" source="Ar5s7_voklD8jbiESg77-5" target="k9d96W4KOObT4GJbrfJA-7" edge="1">
          <mxGeometry width="50" height="50" relative="1" as="geometry">
            <mxPoint x="263" y="231.75" as="sourcePoint" />
            <mxPoint x="524" y="190.75" as="targetPoint" />
            <Array as="points">
              <mxPoint x="390" y="148" />
              <mxPoint x="390" y="241" />
            </Array>
          </mxGeometry>
        </mxCell>
        <mxCell id="k9d96W4KOObT4GJbrfJA-53" value="Job record" style="edgeLabel;html=1;align=center;verticalAlign=middle;resizable=0;points=[];fontSize=12;" parent="k9d96W4KOObT4GJbrfJA-52" vertex="1" connectable="0">
          <mxGeometry x="-0.8973" y="-1" relative="1" as="geometry">
            <mxPoint x="-197" y="84" as="offset" />
          </mxGeometry>
        </mxCell>
      </root>
    </mxGraphModel>
  </diagram>
  <diagram id="bjzGUI0q7kTnnOWPdjsI" name="dfd2-ManageGroups">
    <mxGraphModel dx="1826" dy="1147" grid="0" gridSize="10" guides="1" tooltips="1" connect="1" arrows="1" fold="1" page="0" pageScale="1" pageWidth="850" pageHeight="1100" math="0" shadow="0">
      <root>
        <mxCell id="0" />
        <mxCell id="1" parent="0" />
        <mxCell id="aD8d-t-FLZ9hiH6KHZ4W-1" value="&lt;b&gt;&lt;font style=&quot;font-size: 18px;&quot;&gt;Busybee - DFD 2&lt;/font&gt;&lt;/b&gt;&lt;div&gt;&lt;b&gt;&lt;font style=&quot;font-size: 18px;&quot;&gt;MANAGE GROUPS&lt;/font&gt;&lt;/b&gt;&lt;/div&gt;" style="text;html=1;align=center;verticalAlign=middle;whiteSpace=wrap;rounded=0;" parent="1" vertex="1">
          <mxGeometry x="-236" y="-146" width="656" height="42" as="geometry" />
        </mxCell>
        <mxCell id="N3RLO3eGHTVm9g3rp9rx-2" value="" style="group" parent="1" vertex="1" connectable="0">
          <mxGeometry x="42" y="-68" width="100" height="117" as="geometry" />
        </mxCell>
        <mxCell id="N3RLO3eGHTVm9g3rp9rx-3" value="CREATE GROUP" style="rounded=1;whiteSpace=wrap;html=1;absoluteArcSize=1;arcSize=14;strokeWidth=2;" parent="N3RLO3eGHTVm9g3rp9rx-2" vertex="1">
          <mxGeometry width="100" height="117" as="geometry" />
        </mxCell>
        <mxCell id="N3RLO3eGHTVm9g3rp9rx-4" value="" style="endArrow=none;html=1;rounded=0;fontSize=12;startSize=8;endSize=8;curved=1;exitX=0;exitY=0.25;exitDx=0;exitDy=0;entryX=1;entryY=0.25;entryDx=0;entryDy=0;" parent="N3RLO3eGHTVm9g3rp9rx-2" source="N3RLO3eGHTVm9g3rp9rx-3" target="N3RLO3eGHTVm9g3rp9rx-3" edge="1">
          <mxGeometry width="50" height="50" relative="1" as="geometry">
            <mxPoint x="352" y="274" as="sourcePoint" />
            <mxPoint x="402" y="224" as="targetPoint" />
          </mxGeometry>
        </mxCell>
        <mxCell id="N3RLO3eGHTVm9g3rp9rx-5" value="2.1" style="text;html=1;align=center;verticalAlign=middle;whiteSpace=wrap;rounded=0;" parent="N3RLO3eGHTVm9g3rp9rx-2" vertex="1">
          <mxGeometry x="14" y="5" width="63" height="26" as="geometry" />
        </mxCell>
        <mxCell id="N3RLO3eGHTVm9g3rp9rx-6" value="User" style="html=1;dashed=0;whiteSpace=wrap;shape=mxgraph.dfd.externalEntity" parent="1" vertex="1">
          <mxGeometry x="-323" y="169" width="100" height="100" as="geometry" />
        </mxCell>
        <mxCell id="N3RLO3eGHTVm9g3rp9rx-7" value="" style="group" parent="1" vertex="1" connectable="0">
          <mxGeometry x="401" y="164" width="145" height="103" as="geometry" />
        </mxCell>
        <mxCell id="N3RLO3eGHTVm9g3rp9rx-8" value="" style="group" parent="N3RLO3eGHTVm9g3rp9rx-7" vertex="1" connectable="0">
          <mxGeometry y="32" width="145" height="71" as="geometry" />
        </mxCell>
        <mxCell id="N3RLO3eGHTVm9g3rp9rx-9" value="" style="rounded=0;whiteSpace=wrap;html=1;" parent="N3RLO3eGHTVm9g3rp9rx-8" vertex="1">
          <mxGeometry x="-12" y="-7" width="157" height="77" as="geometry" />
        </mxCell>
        <mxCell id="N3RLO3eGHTVm9g3rp9rx-10" value="" style="shape=cylinder3;whiteSpace=wrap;html=1;boundedLbl=1;backgroundOutline=1;size=15;" parent="N3RLO3eGHTVm9g3rp9rx-8" vertex="1">
          <mxGeometry x="2" y="11" width="53.5" height="48" as="geometry" />
        </mxCell>
        <mxCell id="N3RLO3eGHTVm9g3rp9rx-11" value="&lt;font style=&quot;font-size: 9px;&quot;&gt;Postgres&lt;/font&gt;" style="text;html=1;align=center;verticalAlign=middle;whiteSpace=wrap;rounded=0;" parent="N3RLO3eGHTVm9g3rp9rx-8" vertex="1">
          <mxGeometry x="-1.25" y="32" width="60" height="30" as="geometry" />
        </mxCell>
        <mxCell id="N3RLO3eGHTVm9g3rp9rx-12" value="" style="group" parent="N3RLO3eGHTVm9g3rp9rx-8" vertex="1" connectable="0">
          <mxGeometry x="93" y="12" width="59" height="64" as="geometry" />
        </mxCell>
        <mxCell id="N3RLO3eGHTVm9g3rp9rx-13" value="" style="sketch=0;outlineConnect=0;fontColor=#232F3E;gradientColor=none;strokeColor=#232F3E;fillColor=#ffffff;dashed=0;verticalLabelPosition=bottom;verticalAlign=top;align=center;html=1;fontSize=12;fontStyle=0;aspect=fixed;shape=mxgraph.aws4.resourceIcon;resIcon=mxgraph.aws4.data_encryption_key;" parent="N3RLO3eGHTVm9g3rp9rx-12" vertex="1">
          <mxGeometry x="3.933333333333333" width="47.542857142857144" height="47.542857142857144" as="geometry" />
        </mxCell>
        <mxCell id="N3RLO3eGHTVm9g3rp9rx-14" value="&lt;font style=&quot;font-size: 9px;&quot;&gt;Auth&lt;/font&gt;" style="text;html=1;align=center;verticalAlign=middle;whiteSpace=wrap;rounded=0;" parent="N3RLO3eGHTVm9g3rp9rx-12" vertex="1">
          <mxGeometry y="36.57142857142857" width="59" height="27.428571428571427" as="geometry" />
        </mxCell>
        <mxCell id="N3RLO3eGHTVm9g3rp9rx-15" value="Supabase" style="text;html=1;align=center;verticalAlign=middle;whiteSpace=wrap;rounded=0;" parent="N3RLO3eGHTVm9g3rp9rx-8" vertex="1">
          <mxGeometry x="53" y="-9" width="54.87" height="25.09" as="geometry" />
        </mxCell>
        <mxCell id="N3RLO3eGHTVm9g3rp9rx-16" style="edgeStyle=none;curved=1;rounded=0;orthogonalLoop=1;jettySize=auto;html=1;entryX=0;entryY=0;entryDx=45;entryDy=0;entryPerimeter=0;fontSize=12;startSize=8;endSize=8;" parent="N3RLO3eGHTVm9g3rp9rx-7" edge="1">
          <mxGeometry relative="1" as="geometry">
            <mxPoint x="95.00000000000023" as="sourcePoint" />
            <mxPoint x="95.00000000000023" as="targetPoint" />
          </mxGeometry>
        </mxCell>
        <mxCell id="N3RLO3eGHTVm9g3rp9rx-17" value="" style="group" parent="1" vertex="1" connectable="0">
          <mxGeometry x="42" y="89" width="100" height="117" as="geometry" />
        </mxCell>
        <mxCell id="N3RLO3eGHTVm9g3rp9rx-18" value="VIEW GROUP" style="rounded=1;whiteSpace=wrap;html=1;absoluteArcSize=1;arcSize=14;strokeWidth=2;" parent="N3RLO3eGHTVm9g3rp9rx-17" vertex="1">
          <mxGeometry width="100" height="117" as="geometry" />
        </mxCell>
        <mxCell id="N3RLO3eGHTVm9g3rp9rx-19" value="" style="endArrow=none;html=1;rounded=0;fontSize=12;startSize=8;endSize=8;curved=1;exitX=0;exitY=0.25;exitDx=0;exitDy=0;entryX=1;entryY=0.25;entryDx=0;entryDy=0;" parent="N3RLO3eGHTVm9g3rp9rx-17" source="N3RLO3eGHTVm9g3rp9rx-18" target="N3RLO3eGHTVm9g3rp9rx-18" edge="1">
          <mxGeometry width="50" height="50" relative="1" as="geometry">
            <mxPoint x="352" y="274" as="sourcePoint" />
            <mxPoint x="402" y="224" as="targetPoint" />
          </mxGeometry>
        </mxCell>
        <mxCell id="N3RLO3eGHTVm9g3rp9rx-20" value="2.2" style="text;html=1;align=center;verticalAlign=middle;whiteSpace=wrap;rounded=0;" parent="N3RLO3eGHTVm9g3rp9rx-17" vertex="1">
          <mxGeometry x="14" y="5" width="63" height="26" as="geometry" />
        </mxCell>
        <mxCell id="N3RLO3eGHTVm9g3rp9rx-21" value="" style="group" parent="1" vertex="1" connectable="0">
          <mxGeometry x="42" y="248" width="100" height="117" as="geometry" />
        </mxCell>
        <mxCell id="N3RLO3eGHTVm9g3rp9rx-22" value="UPDATE GROUP" style="rounded=1;whiteSpace=wrap;html=1;absoluteArcSize=1;arcSize=14;strokeWidth=2;" parent="N3RLO3eGHTVm9g3rp9rx-21" vertex="1">
          <mxGeometry width="100" height="117" as="geometry" />
        </mxCell>
        <mxCell id="N3RLO3eGHTVm9g3rp9rx-23" value="" style="endArrow=none;html=1;rounded=0;fontSize=12;startSize=8;endSize=8;curved=1;exitX=0;exitY=0.25;exitDx=0;exitDy=0;entryX=1;entryY=0.25;entryDx=0;entryDy=0;" parent="N3RLO3eGHTVm9g3rp9rx-21" source="N3RLO3eGHTVm9g3rp9rx-22" target="N3RLO3eGHTVm9g3rp9rx-22" edge="1">
          <mxGeometry width="50" height="50" relative="1" as="geometry">
            <mxPoint x="352" y="274" as="sourcePoint" />
            <mxPoint x="402" y="224" as="targetPoint" />
          </mxGeometry>
        </mxCell>
        <mxCell id="N3RLO3eGHTVm9g3rp9rx-24" value="2.3" style="text;html=1;align=center;verticalAlign=middle;whiteSpace=wrap;rounded=0;" parent="N3RLO3eGHTVm9g3rp9rx-21" vertex="1">
          <mxGeometry x="14" y="5" width="63" height="26" as="geometry" />
        </mxCell>
        <mxCell id="N3RLO3eGHTVm9g3rp9rx-25" value="" style="group" parent="1" vertex="1" connectable="0">
          <mxGeometry x="42" y="415" width="100" height="117" as="geometry" />
        </mxCell>
        <mxCell id="N3RLO3eGHTVm9g3rp9rx-26" value="DELETE GROUP" style="rounded=1;whiteSpace=wrap;html=1;absoluteArcSize=1;arcSize=14;strokeWidth=2;" parent="N3RLO3eGHTVm9g3rp9rx-25" vertex="1">
          <mxGeometry width="100" height="117" as="geometry" />
        </mxCell>
        <mxCell id="N3RLO3eGHTVm9g3rp9rx-27" value="" style="endArrow=none;html=1;rounded=0;fontSize=12;startSize=8;endSize=8;curved=1;exitX=0;exitY=0.25;exitDx=0;exitDy=0;entryX=1;entryY=0.25;entryDx=0;entryDy=0;" parent="N3RLO3eGHTVm9g3rp9rx-25" source="N3RLO3eGHTVm9g3rp9rx-26" target="N3RLO3eGHTVm9g3rp9rx-26" edge="1">
          <mxGeometry width="50" height="50" relative="1" as="geometry">
            <mxPoint x="352" y="274" as="sourcePoint" />
            <mxPoint x="402" y="224" as="targetPoint" />
          </mxGeometry>
        </mxCell>
        <mxCell id="N3RLO3eGHTVm9g3rp9rx-28" value="2.4" style="text;html=1;align=center;verticalAlign=middle;whiteSpace=wrap;rounded=0;" parent="N3RLO3eGHTVm9g3rp9rx-25" vertex="1">
          <mxGeometry x="14" y="5" width="63" height="26" as="geometry" />
        </mxCell>
        <mxCell id="N3RLO3eGHTVm9g3rp9rx-29" value="" style="endArrow=classic;html=1;rounded=0;fontSize=12;startSize=8;endSize=8;exitX=0;exitY=0.5;exitDx=0;exitDy=0;entryX=0;entryY=0;entryDx=100;entryDy=32.5;entryPerimeter=0;edgeStyle=orthogonalEdgeStyle;" parent="1" source="N3RLO3eGHTVm9g3rp9rx-18" target="N3RLO3eGHTVm9g3rp9rx-6" edge="1">
          <mxGeometry width="50" height="50" relative="1" as="geometry">
            <mxPoint x="42" y="210" as="sourcePoint" />
            <mxPoint x="-180" y="243.5" as="targetPoint" />
            <Array as="points">
              <mxPoint x="-83" y="148" />
              <mxPoint x="-83" y="202" />
            </Array>
          </mxGeometry>
        </mxCell>
        <mxCell id="N3RLO3eGHTVm9g3rp9rx-30" value="Group details" style="edgeLabel;html=1;align=center;verticalAlign=middle;resizable=0;points=[];fontSize=12;" parent="N3RLO3eGHTVm9g3rp9rx-29" vertex="1" connectable="0">
          <mxGeometry x="-0.5755" y="1" relative="1" as="geometry">
            <mxPoint x="18" y="-10" as="offset" />
          </mxGeometry>
        </mxCell>
        <mxCell id="N3RLO3eGHTVm9g3rp9rx-31" value="" style="endArrow=classic;html=1;rounded=0;fontSize=12;startSize=8;endSize=8;exitX=0;exitY=0;exitDx=100;exitDy=55;exitPerimeter=0;entryX=0;entryY=0.25;entryDx=0;entryDy=0;edgeStyle=orthogonalEdgeStyle;" parent="1" source="N3RLO3eGHTVm9g3rp9rx-6" target="N3RLO3eGHTVm9g3rp9rx-22" edge="1">
          <mxGeometry width="50" height="50" relative="1" as="geometry">
            <mxPoint x="75" y="305" as="sourcePoint" />
            <mxPoint x="125" y="255" as="targetPoint" />
            <Array as="points">
              <mxPoint x="-82" y="224" />
              <mxPoint x="-82" y="277" />
            </Array>
          </mxGeometry>
        </mxCell>
        <mxCell id="N3RLO3eGHTVm9g3rp9rx-32" value="Group Id/&lt;div&gt;updated group fields&lt;/div&gt;" style="edgeLabel;html=1;align=right;verticalAlign=middle;resizable=0;points=[];fontSize=12;" parent="N3RLO3eGHTVm9g3rp9rx-31" vertex="1" connectable="0">
          <mxGeometry x="0.6214" y="-2" relative="1" as="geometry">
            <mxPoint x="48" y="-21" as="offset" />
          </mxGeometry>
        </mxCell>
        <mxCell id="N3RLO3eGHTVm9g3rp9rx-33" value="" style="endArrow=classic;html=1;rounded=0;fontSize=12;startSize=8;endSize=8;exitX=0;exitY=0;exitDx=55;exitDy=100;exitPerimeter=0;entryX=0;entryY=0.5;entryDx=0;entryDy=0;edgeStyle=orthogonalEdgeStyle;" parent="1" source="N3RLO3eGHTVm9g3rp9rx-6" target="N3RLO3eGHTVm9g3rp9rx-26" edge="1">
          <mxGeometry width="50" height="50" relative="1" as="geometry">
            <mxPoint x="75" y="305" as="sourcePoint" />
            <mxPoint x="125" y="255" as="targetPoint" />
          </mxGeometry>
        </mxCell>
        <mxCell id="N3RLO3eGHTVm9g3rp9rx-34" value="Group ID" style="edgeLabel;html=1;align=center;verticalAlign=middle;resizable=0;points=[];fontSize=12;" parent="N3RLO3eGHTVm9g3rp9rx-33" vertex="1" connectable="0">
          <mxGeometry x="0.7188" y="-1" relative="1" as="geometry">
            <mxPoint x="35" y="-11" as="offset" />
          </mxGeometry>
        </mxCell>
        <mxCell id="N3RLO3eGHTVm9g3rp9rx-35" value="" style="endArrow=classic;html=1;rounded=0;fontSize=12;startSize=8;endSize=8;exitX=0;exitY=0;exitDx=45;exitDy=0;exitPerimeter=0;entryX=0;entryY=0.25;entryDx=0;entryDy=0;edgeStyle=orthogonalEdgeStyle;" parent="1" source="N3RLO3eGHTVm9g3rp9rx-6" target="N3RLO3eGHTVm9g3rp9rx-3" edge="1">
          <mxGeometry width="50" height="50" relative="1" as="geometry">
            <mxPoint x="-215" y="281" as="sourcePoint" />
            <mxPoint x="52" y="484" as="targetPoint" />
          </mxGeometry>
        </mxCell>
        <mxCell id="N3RLO3eGHTVm9g3rp9rx-36" value="Group details" style="edgeLabel;html=1;align=center;verticalAlign=middle;resizable=0;points=[];fontSize=12;" parent="N3RLO3eGHTVm9g3rp9rx-35" vertex="1" connectable="0">
          <mxGeometry x="-0.0317" relative="1" as="geometry">
            <mxPoint x="224" y="-11" as="offset" />
          </mxGeometry>
        </mxCell>
        <mxCell id="N3RLO3eGHTVm9g3rp9rx-37" value="" style="endArrow=classic;html=1;rounded=0;fontSize=12;startSize=8;endSize=8;exitX=1;exitY=0.5;exitDx=0;exitDy=0;entryX=0.5;entryY=1;entryDx=0;entryDy=0;edgeStyle=orthogonalEdgeStyle;" parent="1" source="N3RLO3eGHTVm9g3rp9rx-26" target="N3RLO3eGHTVm9g3rp9rx-11" edge="1">
          <mxGeometry width="50" height="50" relative="1" as="geometry">
            <mxPoint x="75" y="305" as="sourcePoint" />
            <mxPoint x="125" y="255" as="targetPoint" />
          </mxGeometry>
        </mxCell>
        <mxCell id="N3RLO3eGHTVm9g3rp9rx-38" value="delete Group query" style="edgeLabel;html=1;align=center;verticalAlign=middle;resizable=0;points=[];fontSize=12;" parent="N3RLO3eGHTVm9g3rp9rx-37" vertex="1" connectable="0">
          <mxGeometry x="-0.841" relative="1" as="geometry">
            <mxPoint x="13" y="-11" as="offset" />
          </mxGeometry>
        </mxCell>
        <mxCell id="N3RLO3eGHTVm9g3rp9rx-39" value="" style="endArrow=classic;html=1;rounded=0;fontSize=12;startSize=8;endSize=8;exitX=1;exitY=0.25;exitDx=0;exitDy=0;entryX=0.673;entryY=-0.021;entryDx=0;entryDy=0;entryPerimeter=0;edgeStyle=orthogonalEdgeStyle;" parent="1" source="N3RLO3eGHTVm9g3rp9rx-3" target="N3RLO3eGHTVm9g3rp9rx-10" edge="1">
          <mxGeometry width="50" height="50" relative="1" as="geometry">
            <mxPoint x="155" y="19.75" as="sourcePoint" />
            <mxPoint x="423.75750000000016" y="211.3499999999999" as="targetPoint" />
          </mxGeometry>
        </mxCell>
        <mxCell id="N3RLO3eGHTVm9g3rp9rx-40" value="insert Group query" style="edgeLabel;html=1;align=center;verticalAlign=middle;resizable=0;points=[];fontSize=12;" parent="N3RLO3eGHTVm9g3rp9rx-39" vertex="1" connectable="0">
          <mxGeometry x="-0.8479" relative="1" as="geometry">
            <mxPoint x="12" y="-11" as="offset" />
          </mxGeometry>
        </mxCell>
        <mxCell id="N3RLO3eGHTVm9g3rp9rx-41" value="" style="endArrow=classic;html=1;rounded=0;fontSize=12;startSize=8;endSize=8;exitX=0.28;exitY=0;exitDx=0;exitDy=0;entryX=1;entryY=0.75;entryDx=0;entryDy=0;edgeStyle=orthogonalEdgeStyle;exitPerimeter=0;" parent="1" source="N3RLO3eGHTVm9g3rp9rx-10" target="N3RLO3eGHTVm9g3rp9rx-3" edge="1">
          <mxGeometry width="50" height="50" relative="1" as="geometry">
            <mxPoint x="261" y="-51" as="sourcePoint" />
            <mxPoint x="530" y="140" as="targetPoint" />
          </mxGeometry>
        </mxCell>
        <mxCell id="N3RLO3eGHTVm9g3rp9rx-42" value="Group record" style="edgeLabel;html=1;align=center;verticalAlign=middle;resizable=0;points=[];fontSize=12;" parent="N3RLO3eGHTVm9g3rp9rx-41" vertex="1" connectable="0">
          <mxGeometry x="0.8238" y="2" relative="1" as="geometry">
            <mxPoint y="-13" as="offset" />
          </mxGeometry>
        </mxCell>
        <mxCell id="N3RLO3eGHTVm9g3rp9rx-43" value="" style="endArrow=classic;html=1;rounded=0;fontSize=12;startSize=8;endSize=8;exitX=0;exitY=0.75;exitDx=0;exitDy=0;entryX=0;entryY=0;entryDx=67.5;entryDy=0;entryPerimeter=0;edgeStyle=orthogonalEdgeStyle;" parent="1" source="N3RLO3eGHTVm9g3rp9rx-3" target="N3RLO3eGHTVm9g3rp9rx-6" edge="1">
          <mxGeometry width="50" height="50" relative="1" as="geometry">
            <mxPoint x="75" y="205" as="sourcePoint" />
            <mxPoint x="125" y="155" as="targetPoint" />
          </mxGeometry>
        </mxCell>
        <mxCell id="N3RLO3eGHTVm9g3rp9rx-44" value="confirmation/&lt;div&gt;new Group&lt;/div&gt;" style="edgeLabel;html=1;align=right;verticalAlign=middle;resizable=0;points=[];fontSize=12;" parent="N3RLO3eGHTVm9g3rp9rx-43" vertex="1" connectable="0">
          <mxGeometry x="-0.4774" y="1" relative="1" as="geometry">
            <mxPoint x="101" y="-19" as="offset" />
          </mxGeometry>
        </mxCell>
        <mxCell id="N3RLO3eGHTVm9g3rp9rx-45" value="" style="endArrow=classic;html=1;rounded=0;fontSize=12;startSize=8;endSize=8;exitX=0;exitY=0;exitDx=100;exitDy=10;exitPerimeter=0;entryX=0;entryY=0.25;entryDx=0;entryDy=0;edgeStyle=orthogonalEdgeStyle;" parent="1" source="N3RLO3eGHTVm9g3rp9rx-6" target="N3RLO3eGHTVm9g3rp9rx-18" edge="1">
          <mxGeometry width="50" height="50" relative="1" as="geometry">
            <mxPoint x="-180" y="180.75" as="sourcePoint" />
            <mxPoint x="42" y="154" as="targetPoint" />
            <Array as="points">
              <mxPoint x="-223" y="181" />
              <mxPoint x="-99" y="181" />
              <mxPoint x="-99" y="118" />
            </Array>
          </mxGeometry>
        </mxCell>
        <mxCell id="N3RLO3eGHTVm9g3rp9rx-46" value="Group ID" style="edgeLabel;html=1;align=center;verticalAlign=middle;resizable=0;points=[];fontSize=12;" parent="N3RLO3eGHTVm9g3rp9rx-45" vertex="1" connectable="0">
          <mxGeometry x="0.6018" y="1" relative="1" as="geometry">
            <mxPoint x="25" y="-8" as="offset" />
          </mxGeometry>
        </mxCell>
        <mxCell id="N3RLO3eGHTVm9g3rp9rx-47" value="" style="endArrow=classic;html=1;rounded=0;fontSize=12;startSize=8;endSize=8;exitX=0;exitY=0.75;exitDx=0;exitDy=0;entryX=0;entryY=0;entryDx=100;entryDy=77.5;entryPerimeter=0;edgeStyle=orthogonalEdgeStyle;" parent="1" source="N3RLO3eGHTVm9g3rp9rx-22" target="N3RLO3eGHTVm9g3rp9rx-6" edge="1">
          <mxGeometry width="50" height="50" relative="1" as="geometry">
            <mxPoint x="80" y="305" as="sourcePoint" />
            <mxPoint x="130" y="255" as="targetPoint" />
            <Array as="points">
              <mxPoint x="-98" y="336" />
              <mxPoint x="-98" y="247" />
            </Array>
          </mxGeometry>
        </mxCell>
        <mxCell id="N3RLO3eGHTVm9g3rp9rx-48" value="confirmation/&lt;div&gt;updated Group&lt;/div&gt;" style="edgeLabel;html=1;align=right;verticalAlign=middle;resizable=0;points=[];fontSize=12;" parent="N3RLO3eGHTVm9g3rp9rx-47" vertex="1" connectable="0">
          <mxGeometry x="-0.6185" y="-3" relative="1" as="geometry">
            <mxPoint x="53" y="-15" as="offset" />
          </mxGeometry>
        </mxCell>
        <mxCell id="N3RLO3eGHTVm9g3rp9rx-49" value="" style="endArrow=classic;html=1;rounded=0;fontSize=12;startSize=8;endSize=8;exitX=1;exitY=0.25;exitDx=0;exitDy=0;entryX=0;entryY=0;entryDx=0;entryDy=15;entryPerimeter=0;edgeStyle=orthogonalEdgeStyle;" parent="1" source="N3RLO3eGHTVm9g3rp9rx-18" target="N3RLO3eGHTVm9g3rp9rx-10" edge="1">
          <mxGeometry width="50" height="50" relative="1" as="geometry">
            <mxPoint x="82" y="305" as="sourcePoint" />
            <mxPoint x="132" y="255" as="targetPoint" />
            <Array as="points">
              <mxPoint x="290" y="118" />
              <mxPoint x="290" y="222" />
            </Array>
          </mxGeometry>
        </mxCell>
        <mxCell id="N3RLO3eGHTVm9g3rp9rx-50" value="select Group query" style="edgeLabel;html=1;align=center;verticalAlign=middle;resizable=0;points=[];fontSize=12;" parent="N3RLO3eGHTVm9g3rp9rx-49" vertex="1" connectable="0">
          <mxGeometry x="-0.83" y="-1" relative="1" as="geometry">
            <mxPoint x="24" y="-12" as="offset" />
          </mxGeometry>
        </mxCell>
        <mxCell id="N3RLO3eGHTVm9g3rp9rx-51" value="" style="endArrow=classic;html=1;rounded=0;fontSize=12;startSize=8;endSize=8;exitX=0;exitY=0;exitDx=0;exitDy=19.5;entryX=1;entryY=0.5;entryDx=0;entryDy=0;edgeStyle=orthogonalEdgeStyle;exitPerimeter=0;" parent="1" source="N3RLO3eGHTVm9g3rp9rx-10" target="N3RLO3eGHTVm9g3rp9rx-18" edge="1">
          <mxGeometry width="50" height="50" relative="1" as="geometry">
            <mxPoint x="152" y="128" as="sourcePoint" />
            <mxPoint x="413" y="232" as="targetPoint" />
            <Array as="points">
              <mxPoint x="262" y="227" />
              <mxPoint x="262" y="147" />
            </Array>
          </mxGeometry>
        </mxCell>
        <mxCell id="N3RLO3eGHTVm9g3rp9rx-52" value="Group record" style="edgeLabel;html=1;align=center;verticalAlign=middle;resizable=0;points=[];fontSize=12;" parent="N3RLO3eGHTVm9g3rp9rx-51" vertex="1" connectable="0">
          <mxGeometry x="0.6761" y="2" relative="1" as="geometry">
            <mxPoint x="-10" y="-12" as="offset" />
          </mxGeometry>
        </mxCell>
        <mxCell id="N3RLO3eGHTVm9g3rp9rx-53" value="" style="endArrow=classic;html=1;rounded=0;fontSize=12;startSize=8;endSize=8;exitX=1;exitY=0.25;exitDx=0;exitDy=0;entryX=0;entryY=0;entryDx=0;entryDy=28.5;edgeStyle=orthogonalEdgeStyle;entryPerimeter=0;" parent="1" source="N3RLO3eGHTVm9g3rp9rx-22" target="N3RLO3eGHTVm9g3rp9rx-10" edge="1">
          <mxGeometry width="50" height="50" relative="1" as="geometry">
            <mxPoint x="82" y="405" as="sourcePoint" />
            <mxPoint x="132" y="355" as="targetPoint" />
            <Array as="points">
              <mxPoint x="262" y="277" />
              <mxPoint x="262" y="235" />
            </Array>
          </mxGeometry>
        </mxCell>
        <mxCell id="N3RLO3eGHTVm9g3rp9rx-54" value="update Group query" style="edgeLabel;html=1;align=center;verticalAlign=middle;resizable=0;points=[];fontSize=12;" parent="N3RLO3eGHTVm9g3rp9rx-53" vertex="1" connectable="0">
          <mxGeometry x="-0.8973" y="-1" relative="1" as="geometry">
            <mxPoint x="42" y="-11" as="offset" />
          </mxGeometry>
        </mxCell>
        <mxCell id="N3RLO3eGHTVm9g3rp9rx-55" value="" style="endArrow=classic;html=1;rounded=0;fontSize=12;startSize=8;endSize=8;exitX=0;exitY=0.5;exitDx=0;exitDy=0;entryX=1;entryY=0.75;entryDx=0;entryDy=0;edgeStyle=orthogonalEdgeStyle;" parent="1" source="N3RLO3eGHTVm9g3rp9rx-11" target="N3RLO3eGHTVm9g3rp9rx-22" edge="1">
          <mxGeometry width="50" height="50" relative="1" as="geometry">
            <mxPoint x="163" y="326.75" as="sourcePoint" />
            <mxPoint x="424" y="285.75" as="targetPoint" />
            <Array as="points">
              <mxPoint x="290" y="243" />
              <mxPoint x="290" y="336" />
            </Array>
          </mxGeometry>
        </mxCell>
        <mxCell id="N3RLO3eGHTVm9g3rp9rx-56" value="Group record" style="edgeLabel;html=1;align=center;verticalAlign=middle;resizable=0;points=[];fontSize=12;" parent="N3RLO3eGHTVm9g3rp9rx-55" vertex="1" connectable="0">
          <mxGeometry x="-0.8973" y="-1" relative="1" as="geometry">
            <mxPoint x="-194" y="82" as="offset" />
          </mxGeometry>
        </mxCell>
      </root>
    </mxGraphModel>
  </diagram>
  <diagram id="9LKeEi9gWjh8HoP_eks4" name="dfd3-ManageDocuments">
    <mxGraphModel dx="1826" dy="1147" grid="0" gridSize="10" guides="1" tooltips="1" connect="1" arrows="1" fold="1" page="0" pageScale="1" pageWidth="850" pageHeight="1100" math="0" shadow="0">
      <root>
        <mxCell id="0" />
        <mxCell id="1" parent="0" />
        <mxCell id="MIeqx0eA1DsoCoGTX6gx-1" value="&lt;b&gt;&lt;font style=&quot;font-size: 18px;&quot;&gt;Busybee - DFD 3&lt;/font&gt;&lt;/b&gt;&lt;div&gt;&lt;b&gt;&lt;font style=&quot;font-size: 18px;&quot;&gt;MANAGE DOCUMENTS&lt;/font&gt;&lt;/b&gt;&lt;/div&gt;" style="text;html=1;align=center;verticalAlign=middle;whiteSpace=wrap;rounded=0;" parent="1" vertex="1">
          <mxGeometry x="-179" y="-162" width="656" height="42" as="geometry" />
        </mxCell>
        <mxCell id="VY8zDcc6lW5A-XHkIb-H-1" value="" style="group" parent="1" vertex="1" connectable="0">
          <mxGeometry x="352" y="19" width="145" height="103" as="geometry" />
        </mxCell>
        <mxCell id="VY8zDcc6lW5A-XHkIb-H-2" value="" style="group" parent="VY8zDcc6lW5A-XHkIb-H-1" vertex="1" connectable="0">
          <mxGeometry y="32" width="145" height="71" as="geometry" />
        </mxCell>
        <mxCell id="VY8zDcc6lW5A-XHkIb-H-3" value="" style="rounded=0;whiteSpace=wrap;html=1;" parent="VY8zDcc6lW5A-XHkIb-H-2" vertex="1">
          <mxGeometry x="-12" y="-7" width="157" height="77" as="geometry" />
        </mxCell>
        <mxCell id="VY8zDcc6lW5A-XHkIb-H-4" value="" style="shape=cylinder3;whiteSpace=wrap;html=1;boundedLbl=1;backgroundOutline=1;size=15;" parent="VY8zDcc6lW5A-XHkIb-H-2" vertex="1">
          <mxGeometry x="2" y="11" width="53.5" height="48" as="geometry" />
        </mxCell>
        <mxCell id="VY8zDcc6lW5A-XHkIb-H-5" value="&lt;font style=&quot;font-size: 9px;&quot;&gt;Postgres&lt;/font&gt;" style="text;html=1;align=center;verticalAlign=middle;whiteSpace=wrap;rounded=0;" parent="VY8zDcc6lW5A-XHkIb-H-2" vertex="1">
          <mxGeometry x="-1.25" y="32" width="60" height="30" as="geometry" />
        </mxCell>
        <mxCell id="VY8zDcc6lW5A-XHkIb-H-6" value="" style="group" parent="VY8zDcc6lW5A-XHkIb-H-2" vertex="1" connectable="0">
          <mxGeometry x="93" y="12" width="59" height="64" as="geometry" />
        </mxCell>
        <mxCell id="VY8zDcc6lW5A-XHkIb-H-7" value="" style="sketch=0;outlineConnect=0;fontColor=#232F3E;gradientColor=none;strokeColor=#232F3E;fillColor=#ffffff;dashed=0;verticalLabelPosition=bottom;verticalAlign=top;align=center;html=1;fontSize=12;fontStyle=0;aspect=fixed;shape=mxgraph.aws4.resourceIcon;resIcon=mxgraph.aws4.data_encryption_key;" parent="VY8zDcc6lW5A-XHkIb-H-6" vertex="1">
          <mxGeometry x="3.933333333333333" width="47.542857142857144" height="47.542857142857144" as="geometry" />
        </mxCell>
        <mxCell id="VY8zDcc6lW5A-XHkIb-H-8" value="&lt;font style=&quot;font-size: 9px;&quot;&gt;Auth&lt;/font&gt;" style="text;html=1;align=center;verticalAlign=middle;whiteSpace=wrap;rounded=0;" parent="VY8zDcc6lW5A-XHkIb-H-6" vertex="1">
          <mxGeometry y="36.57142857142857" width="59" height="27.428571428571427" as="geometry" />
        </mxCell>
        <mxCell id="VY8zDcc6lW5A-XHkIb-H-9" value="Supabase" style="text;html=1;align=center;verticalAlign=middle;whiteSpace=wrap;rounded=0;" parent="VY8zDcc6lW5A-XHkIb-H-2" vertex="1">
          <mxGeometry x="53" y="-9" width="54.87" height="25.09" as="geometry" />
        </mxCell>
        <mxCell id="VY8zDcc6lW5A-XHkIb-H-10" style="edgeStyle=none;curved=1;rounded=0;orthogonalLoop=1;jettySize=auto;html=1;entryX=0;entryY=0;entryDx=45;entryDy=0;entryPerimeter=0;fontSize=12;startSize=8;endSize=8;" parent="VY8zDcc6lW5A-XHkIb-H-1" edge="1">
          <mxGeometry relative="1" as="geometry">
            <mxPoint x="95.00000000000023" as="sourcePoint" />
            <mxPoint x="95.00000000000023" as="targetPoint" />
          </mxGeometry>
        </mxCell>
        <mxCell id="t7MKubf7vuar0XHD1Qlc-1" value="User" style="html=1;dashed=0;whiteSpace=wrap;shape=mxgraph.dfd.externalEntity" parent="1" vertex="1">
          <mxGeometry x="-173" y="45" width="100" height="100" as="geometry" />
        </mxCell>
        <mxCell id="8q-I6ogOUZaDRJXNSMo1-1" value="" style="group" parent="1" vertex="1" connectable="0">
          <mxGeometry x="99" y="-92" width="100" height="117" as="geometry" />
        </mxCell>
        <mxCell id="8q-I6ogOUZaDRJXNSMo1-2" value="UPLOAD DOCUMENT" style="rounded=1;whiteSpace=wrap;html=1;absoluteArcSize=1;arcSize=14;strokeWidth=2;" parent="8q-I6ogOUZaDRJXNSMo1-1" vertex="1">
          <mxGeometry width="100" height="117" as="geometry" />
        </mxCell>
        <mxCell id="8q-I6ogOUZaDRJXNSMo1-3" value="" style="endArrow=none;html=1;rounded=0;fontSize=12;startSize=8;endSize=8;curved=1;exitX=0;exitY=0.25;exitDx=0;exitDy=0;entryX=1;entryY=0.25;entryDx=0;entryDy=0;" parent="8q-I6ogOUZaDRJXNSMo1-1" source="8q-I6ogOUZaDRJXNSMo1-2" target="8q-I6ogOUZaDRJXNSMo1-2" edge="1">
          <mxGeometry width="50" height="50" relative="1" as="geometry">
            <mxPoint x="352" y="274" as="sourcePoint" />
            <mxPoint x="402" y="224" as="targetPoint" />
          </mxGeometry>
        </mxCell>
        <mxCell id="8q-I6ogOUZaDRJXNSMo1-4" value="3.1" style="text;html=1;align=center;verticalAlign=middle;whiteSpace=wrap;rounded=0;" parent="8q-I6ogOUZaDRJXNSMo1-1" vertex="1">
          <mxGeometry x="14" y="5" width="63" height="26" as="geometry" />
        </mxCell>
        <mxCell id="8q-I6ogOUZaDRJXNSMo1-5" value="" style="group" parent="1" vertex="1" connectable="0">
          <mxGeometry x="99" y="48" width="100" height="117" as="geometry" />
        </mxCell>
        <mxCell id="8q-I6ogOUZaDRJXNSMo1-6" value="VIEW DOCUMENT" style="rounded=1;whiteSpace=wrap;html=1;absoluteArcSize=1;arcSize=14;strokeWidth=2;" parent="8q-I6ogOUZaDRJXNSMo1-5" vertex="1">
          <mxGeometry width="100" height="117" as="geometry" />
        </mxCell>
        <mxCell id="8q-I6ogOUZaDRJXNSMo1-7" value="" style="endArrow=none;html=1;rounded=0;fontSize=12;startSize=8;endSize=8;curved=1;exitX=0;exitY=0.25;exitDx=0;exitDy=0;entryX=1;entryY=0.25;entryDx=0;entryDy=0;" parent="8q-I6ogOUZaDRJXNSMo1-5" source="8q-I6ogOUZaDRJXNSMo1-6" target="8q-I6ogOUZaDRJXNSMo1-6" edge="1">
          <mxGeometry width="50" height="50" relative="1" as="geometry">
            <mxPoint x="352" y="274" as="sourcePoint" />
            <mxPoint x="402" y="224" as="targetPoint" />
          </mxGeometry>
        </mxCell>
        <mxCell id="8q-I6ogOUZaDRJXNSMo1-8" value="3.2" style="text;html=1;align=center;verticalAlign=middle;whiteSpace=wrap;rounded=0;" parent="8q-I6ogOUZaDRJXNSMo1-5" vertex="1">
          <mxGeometry x="14" y="5" width="63" height="26" as="geometry" />
        </mxCell>
        <mxCell id="8q-I6ogOUZaDRJXNSMo1-13" value="" style="group" parent="1" vertex="1" connectable="0">
          <mxGeometry x="99" y="191" width="100" height="117" as="geometry" />
        </mxCell>
        <mxCell id="8q-I6ogOUZaDRJXNSMo1-14" value="DELETE DOCUMENT" style="rounded=1;whiteSpace=wrap;html=1;absoluteArcSize=1;arcSize=14;strokeWidth=2;" parent="8q-I6ogOUZaDRJXNSMo1-13" vertex="1">
          <mxGeometry width="100" height="117" as="geometry" />
        </mxCell>
        <mxCell id="8q-I6ogOUZaDRJXNSMo1-15" value="" style="endArrow=none;html=1;rounded=0;fontSize=12;startSize=8;endSize=8;curved=1;exitX=0;exitY=0.25;exitDx=0;exitDy=0;entryX=1;entryY=0.25;entryDx=0;entryDy=0;" parent="8q-I6ogOUZaDRJXNSMo1-13" source="8q-I6ogOUZaDRJXNSMo1-14" target="8q-I6ogOUZaDRJXNSMo1-14" edge="1">
          <mxGeometry width="50" height="50" relative="1" as="geometry">
            <mxPoint x="352" y="274" as="sourcePoint" />
            <mxPoint x="402" y="224" as="targetPoint" />
          </mxGeometry>
        </mxCell>
        <mxCell id="8q-I6ogOUZaDRJXNSMo1-16" value="3.3" style="text;html=1;align=center;verticalAlign=middle;whiteSpace=wrap;rounded=0;" parent="8q-I6ogOUZaDRJXNSMo1-13" vertex="1">
          <mxGeometry x="14" y="5" width="63" height="26" as="geometry" />
        </mxCell>
        <mxCell id="8q-I6ogOUZaDRJXNSMo1-17" value="" style="endArrow=classic;html=1;rounded=0;exitX=0;exitY=0;exitDx=22.5;exitDy=0;exitPerimeter=0;entryX=0;entryY=0.25;entryDx=0;entryDy=0;edgeStyle=orthogonalEdgeStyle;" parent="1" source="t7MKubf7vuar0XHD1Qlc-1" target="8q-I6ogOUZaDRJXNSMo1-2" edge="1">
          <mxGeometry width="50" height="50" relative="1" as="geometry">
            <mxPoint x="175" y="137" as="sourcePoint" />
            <mxPoint x="225" y="87" as="targetPoint" />
          </mxGeometry>
        </mxCell>
        <mxCell id="8q-I6ogOUZaDRJXNSMo1-21" value="document/&lt;div&gt;doc name&lt;/div&gt;" style="edgeLabel;html=1;align=center;verticalAlign=middle;resizable=0;points=[];" parent="8q-I6ogOUZaDRJXNSMo1-17" vertex="1" connectable="0">
          <mxGeometry x="0.6954" y="1" relative="1" as="geometry">
            <mxPoint x="11" y="-17" as="offset" />
          </mxGeometry>
        </mxCell>
        <mxCell id="8q-I6ogOUZaDRJXNSMo1-18" value="" style="endArrow=classic;html=1;rounded=0;exitX=1;exitY=0.5;exitDx=0;exitDy=0;entryX=0.5;entryY=0;entryDx=0;entryDy=0;edgeStyle=orthogonalEdgeStyle;entryPerimeter=0;" parent="1" source="8q-I6ogOUZaDRJXNSMo1-2" target="VY8zDcc6lW5A-XHkIb-H-4" edge="1">
          <mxGeometry width="50" height="50" relative="1" as="geometry">
            <mxPoint x="336" y="-30" as="sourcePoint" />
            <mxPoint x="562" y="-150" as="targetPoint" />
          </mxGeometry>
        </mxCell>
        <mxCell id="8q-I6ogOUZaDRJXNSMo1-22" value="insert Document query" style="edgeLabel;html=1;align=center;verticalAlign=middle;resizable=0;points=[];" parent="8q-I6ogOUZaDRJXNSMo1-18" vertex="1" connectable="0">
          <mxGeometry x="-0.8245" y="1" relative="1" as="geometry">
            <mxPoint x="37" y="-12" as="offset" />
          </mxGeometry>
        </mxCell>
        <mxCell id="8q-I6ogOUZaDRJXNSMo1-20" value="" style="endArrow=classic;html=1;rounded=0;exitX=0;exitY=0.75;exitDx=0;exitDy=0;entryX=0;entryY=0;entryDx=67.5;entryDy=0;edgeStyle=orthogonalEdgeStyle;entryPerimeter=0;" parent="1" source="8q-I6ogOUZaDRJXNSMo1-2" target="t7MKubf7vuar0XHD1Qlc-1" edge="1">
          <mxGeometry width="50" height="50" relative="1" as="geometry">
            <mxPoint x="441" y="115" as="sourcePoint" />
            <mxPoint x="209" y="6" as="targetPoint" />
          </mxGeometry>
        </mxCell>
        <mxCell id="8q-I6ogOUZaDRJXNSMo1-24" value="confirmation" style="edgeLabel;html=1;align=center;verticalAlign=middle;resizable=0;points=[];" parent="8q-I6ogOUZaDRJXNSMo1-20" vertex="1" connectable="0">
          <mxGeometry x="-0.3641" y="3" relative="1" as="geometry">
            <mxPoint x="46" y="-13" as="offset" />
          </mxGeometry>
        </mxCell>
        <mxCell id="8q-I6ogOUZaDRJXNSMo1-25" value="" style="endArrow=classic;html=1;rounded=0;exitX=0;exitY=0;exitDx=100;exitDy=32.5;exitPerimeter=0;entryX=0;entryY=0.25;entryDx=0;entryDy=0;" parent="1" source="t7MKubf7vuar0XHD1Qlc-1" target="8q-I6ogOUZaDRJXNSMo1-6" edge="1">
          <mxGeometry width="50" height="50" relative="1" as="geometry">
            <mxPoint x="175" y="137" as="sourcePoint" />
            <mxPoint x="225" y="87" as="targetPoint" />
          </mxGeometry>
        </mxCell>
        <mxCell id="8q-I6ogOUZaDRJXNSMo1-27" value="Document ID" style="edgeLabel;html=1;align=center;verticalAlign=middle;resizable=0;points=[];" parent="8q-I6ogOUZaDRJXNSMo1-25" vertex="1" connectable="0">
          <mxGeometry x="0.7201" y="-2" relative="1" as="geometry">
            <mxPoint x="-20" y="-13" as="offset" />
          </mxGeometry>
        </mxCell>
        <mxCell id="8q-I6ogOUZaDRJXNSMo1-26" value="" style="endArrow=classic;html=1;rounded=0;entryX=0;entryY=0;entryDx=100;entryDy=77.5;entryPerimeter=0;" parent="1" target="t7MKubf7vuar0XHD1Qlc-1" edge="1">
          <mxGeometry width="50" height="50" relative="1" as="geometry">
            <mxPoint x="98" y="123" as="sourcePoint" />
            <mxPoint x="109" y="87" as="targetPoint" />
          </mxGeometry>
        </mxCell>
        <mxCell id="nS_08keoAWDOkZdqnE4a-1" value="Document" style="edgeLabel;html=1;align=center;verticalAlign=middle;resizable=0;points=[];" parent="8q-I6ogOUZaDRJXNSMo1-26" vertex="1" connectable="0">
          <mxGeometry x="-0.5689" y="1" relative="1" as="geometry">
            <mxPoint y="-10" as="offset" />
          </mxGeometry>
        </mxCell>
        <mxCell id="nS_08keoAWDOkZdqnE4a-3" value="" style="endArrow=classic;html=1;rounded=0;exitX=1;exitY=0.25;exitDx=0;exitDy=0;entryX=0;entryY=0;entryDx=0;entryDy=15;entryPerimeter=0;" parent="1" source="8q-I6ogOUZaDRJXNSMo1-6" target="VY8zDcc6lW5A-XHkIb-H-4" edge="1">
          <mxGeometry width="50" height="50" relative="1" as="geometry">
            <mxPoint x="227" y="176" as="sourcePoint" />
            <mxPoint x="277" y="126" as="targetPoint" />
          </mxGeometry>
        </mxCell>
        <mxCell id="FGPnXvKbh6wR2SkTL2Gs-1" value="select Document query" style="edgeLabel;html=1;align=center;verticalAlign=middle;resizable=0;points=[];" parent="nS_08keoAWDOkZdqnE4a-3" vertex="1" connectable="0">
          <mxGeometry x="-0.7902" relative="1" as="geometry">
            <mxPoint x="43" y="-10" as="offset" />
          </mxGeometry>
        </mxCell>
        <mxCell id="FGPnXvKbh6wR2SkTL2Gs-2" value="" style="endArrow=classic;html=1;rounded=0;exitX=0;exitY=0;exitDx=0;exitDy=28.5;exitPerimeter=0;entryX=1.01;entryY=0.646;entryDx=0;entryDy=0;entryPerimeter=0;edgeStyle=orthogonalEdgeStyle;" parent="1" source="VY8zDcc6lW5A-XHkIb-H-4" target="8q-I6ogOUZaDRJXNSMo1-6" edge="1">
          <mxGeometry width="50" height="50" relative="1" as="geometry">
            <mxPoint x="167" y="155" as="sourcePoint" />
            <mxPoint x="217" y="105" as="targetPoint" />
          </mxGeometry>
        </mxCell>
        <mxCell id="FGPnXvKbh6wR2SkTL2Gs-3" value="Document" style="edgeLabel;html=1;align=center;verticalAlign=middle;resizable=0;points=[];" parent="FGPnXvKbh6wR2SkTL2Gs-2" vertex="1" connectable="0">
          <mxGeometry x="0.6584" relative="1" as="geometry">
            <mxPoint x="4" y="-10" as="offset" />
          </mxGeometry>
        </mxCell>
        <mxCell id="FGPnXvKbh6wR2SkTL2Gs-4" value="" style="endArrow=classic;html=1;rounded=0;exitX=1;exitY=0.5;exitDx=0;exitDy=0;entryX=0.5;entryY=1;entryDx=0;entryDy=0;entryPerimeter=0;edgeStyle=orthogonalEdgeStyle;" parent="1" source="8q-I6ogOUZaDRJXNSMo1-14" target="VY8zDcc6lW5A-XHkIb-H-4" edge="1">
          <mxGeometry width="50" height="50" relative="1" as="geometry">
            <mxPoint x="167" y="155" as="sourcePoint" />
            <mxPoint x="217" y="105" as="targetPoint" />
          </mxGeometry>
        </mxCell>
        <mxCell id="FGPnXvKbh6wR2SkTL2Gs-5" value="delete Document query" style="edgeLabel;html=1;align=center;verticalAlign=middle;resizable=0;points=[];" parent="FGPnXvKbh6wR2SkTL2Gs-4" vertex="1" connectable="0">
          <mxGeometry x="-0.8275" y="2" relative="1" as="geometry">
            <mxPoint x="31" y="-7" as="offset" />
          </mxGeometry>
        </mxCell>
        <mxCell id="FGPnXvKbh6wR2SkTL2Gs-6" value="" style="endArrow=classic;html=1;rounded=0;exitX=0;exitY=0;exitDx=55;exitDy=100;exitPerimeter=0;entryX=0;entryY=0.5;entryDx=0;entryDy=0;edgeStyle=orthogonalEdgeStyle;" parent="1" source="t7MKubf7vuar0XHD1Qlc-1" target="8q-I6ogOUZaDRJXNSMo1-14" edge="1">
          <mxGeometry width="50" height="50" relative="1" as="geometry">
            <mxPoint x="247" y="112" as="sourcePoint" />
            <mxPoint x="297" y="62" as="targetPoint" />
          </mxGeometry>
        </mxCell>
        <mxCell id="FGPnXvKbh6wR2SkTL2Gs-7" value="Document ID" style="edgeLabel;html=1;align=center;verticalAlign=middle;resizable=0;points=[];" parent="FGPnXvKbh6wR2SkTL2Gs-6" vertex="1" connectable="0">
          <mxGeometry x="0.7516" relative="1" as="geometry">
            <mxPoint x="-5" y="-9" as="offset" />
          </mxGeometry>
        </mxCell>
      </root>
    </mxGraphModel>
  </diagram>
  <diagram id="2oxPyoltLkYzphhH2BDE" name="dfd4-ProduceStatistics">
    <mxGraphModel dx="874" dy="579" grid="0" gridSize="10" guides="1" tooltips="1" connect="1" arrows="1" fold="1" page="1" pageScale="1" pageWidth="850" pageHeight="1100" math="0" shadow="0">
      <root>
        <mxCell id="0" />
        <mxCell id="1" parent="0" />
        <mxCell id="kwukr2w4ieLjNJShJVtx-1" value="" style="group" parent="1" vertex="1" connectable="0">
          <mxGeometry x="104" y="424" width="100" height="117" as="geometry" />
        </mxCell>
        <mxCell id="kwukr2w4ieLjNJShJVtx-2" value="CALCULATE STATISTICS" style="rounded=1;whiteSpace=wrap;html=1;absoluteArcSize=1;arcSize=14;strokeWidth=2;" parent="kwukr2w4ieLjNJShJVtx-1" vertex="1">
          <mxGeometry y="2" width="100" height="117" as="geometry" />
        </mxCell>
        <mxCell id="kwukr2w4ieLjNJShJVtx-3" value="" style="endArrow=none;html=1;rounded=0;fontSize=12;startSize=8;endSize=8;curved=1;exitX=0;exitY=0.25;exitDx=0;exitDy=0;entryX=1;entryY=0.25;entryDx=0;entryDy=0;" parent="kwukr2w4ieLjNJShJVtx-1" source="kwukr2w4ieLjNJShJVtx-2" target="kwukr2w4ieLjNJShJVtx-2" edge="1">
          <mxGeometry width="50" height="50" relative="1" as="geometry">
            <mxPoint x="352" y="274" as="sourcePoint" />
            <mxPoint x="402" y="224" as="targetPoint" />
          </mxGeometry>
        </mxCell>
        <mxCell id="kwukr2w4ieLjNJShJVtx-4" value="4.1" style="text;html=1;align=center;verticalAlign=middle;whiteSpace=wrap;rounded=0;" parent="kwukr2w4ieLjNJShJVtx-1" vertex="1">
          <mxGeometry x="14" y="5" width="63" height="26" as="geometry" />
        </mxCell>
        <mxCell id="HKgt52hIsj_t4zTF1n8w-1" value="&lt;b&gt;&lt;font style=&quot;font-size: 18px;&quot;&gt;Busybee - DFD 4&lt;/font&gt;&lt;/b&gt;&lt;div&gt;&lt;span style=&quot;font-size: 18px;&quot;&gt;&lt;b&gt;PRODUCE STATISTICS&lt;/b&gt;&lt;/span&gt;&lt;/div&gt;" style="text;html=1;align=center;verticalAlign=middle;whiteSpace=wrap;rounded=0;" parent="1" vertex="1">
          <mxGeometry x="64" y="167" width="656" height="42" as="geometry" />
        </mxCell>
        <mxCell id="HKgt52hIsj_t4zTF1n8w-2" value="User" style="html=1;dashed=0;whiteSpace=wrap;shape=mxgraph.dfd.externalEntity" parent="1" vertex="1">
          <mxGeometry x="100" y="273" width="100" height="100" as="geometry" />
        </mxCell>
        <mxCell id="Mdwa0eSkMxEOQ7oAjMho-1" value="" style="group" parent="1" vertex="1" connectable="0">
          <mxGeometry x="466" y="424" width="100" height="117" as="geometry" />
        </mxCell>
        <mxCell id="Mdwa0eSkMxEOQ7oAjMho-2" value="MANAGE JOBS" style="rounded=1;whiteSpace=wrap;html=1;absoluteArcSize=1;arcSize=14;strokeWidth=2;" parent="Mdwa0eSkMxEOQ7oAjMho-1" vertex="1">
          <mxGeometry y="2" width="100" height="117" as="geometry" />
        </mxCell>
        <mxCell id="Mdwa0eSkMxEOQ7oAjMho-3" value="" style="endArrow=none;html=1;rounded=0;fontSize=12;startSize=8;endSize=8;curved=1;exitX=0;exitY=0.25;exitDx=0;exitDy=0;entryX=1;entryY=0.25;entryDx=0;entryDy=0;" parent="Mdwa0eSkMxEOQ7oAjMho-1" source="Mdwa0eSkMxEOQ7oAjMho-2" target="Mdwa0eSkMxEOQ7oAjMho-2" edge="1">
          <mxGeometry width="50" height="50" relative="1" as="geometry">
            <mxPoint x="352" y="274" as="sourcePoint" />
            <mxPoint x="402" y="224" as="targetPoint" />
          </mxGeometry>
        </mxCell>
        <mxCell id="Mdwa0eSkMxEOQ7oAjMho-4" value="5" style="text;html=1;align=center;verticalAlign=middle;whiteSpace=wrap;rounded=0;" parent="Mdwa0eSkMxEOQ7oAjMho-1" vertex="1">
          <mxGeometry x="14" y="5" width="63" height="26" as="geometry" />
        </mxCell>
        <mxCell id="Mdwa0eSkMxEOQ7oAjMho-6" value="Jobs" style="html=1;dashed=0;whiteSpace=wrap;shape=partialRectangle;right=0;" parent="1" vertex="1">
          <mxGeometry x="269" y="469.5" width="100" height="30" as="geometry" />
        </mxCell>
        <mxCell id="Mdwa0eSkMxEOQ7oAjMho-7" value="" style="endArrow=classic;html=1;rounded=0;entryX=1;entryY=0.5;entryDx=0;entryDy=0;exitX=0;exitY=0.5;exitDx=0;exitDy=0;" parent="1" source="Mdwa0eSkMxEOQ7oAjMho-2" target="Mdwa0eSkMxEOQ7oAjMho-6" edge="1">
          <mxGeometry width="50" height="50" relative="1" as="geometry">
            <mxPoint x="525" y="485" as="sourcePoint" />
            <mxPoint x="449" y="358" as="targetPoint" />
          </mxGeometry>
        </mxCell>
        <mxCell id="3HujY55bUjkku48g7l_u-16" value="Jobs" style="edgeLabel;html=1;align=center;verticalAlign=middle;resizable=0;points=[];" parent="Mdwa0eSkMxEOQ7oAjMho-7" vertex="1" connectable="0">
          <mxGeometry x="0.1446" y="-1" relative="1" as="geometry">
            <mxPoint x="18" y="-9" as="offset" />
          </mxGeometry>
        </mxCell>
        <mxCell id="Mdwa0eSkMxEOQ7oAjMho-8" value="" style="endArrow=classic;html=1;rounded=0;exitX=0;exitY=0.5;exitDx=0;exitDy=0;entryX=1;entryY=0.5;entryDx=0;entryDy=0;" parent="1" source="Mdwa0eSkMxEOQ7oAjMho-6" target="kwukr2w4ieLjNJShJVtx-2" edge="1">
          <mxGeometry width="50" height="50" relative="1" as="geometry">
            <mxPoint x="399" y="408" as="sourcePoint" />
            <mxPoint x="449" y="358" as="targetPoint" />
          </mxGeometry>
        </mxCell>
        <mxCell id="3HujY55bUjkku48g7l_u-17" value="Jobs" style="edgeLabel;html=1;align=center;verticalAlign=middle;resizable=0;points=[];" parent="Mdwa0eSkMxEOQ7oAjMho-8" vertex="1" connectable="0">
          <mxGeometry x="-0.0267" y="-1" relative="1" as="geometry">
            <mxPoint x="-10" y="-8" as="offset" />
          </mxGeometry>
        </mxCell>
        <mxCell id="3HujY55bUjkku48g7l_u-1" value="" style="group" parent="1" vertex="1" connectable="0">
          <mxGeometry x="697" y="417" width="145" height="103" as="geometry" />
        </mxCell>
        <mxCell id="3HujY55bUjkku48g7l_u-2" value="" style="group" parent="3HujY55bUjkku48g7l_u-1" vertex="1" connectable="0">
          <mxGeometry y="32" width="145" height="71" as="geometry" />
        </mxCell>
        <mxCell id="3HujY55bUjkku48g7l_u-3" value="" style="rounded=0;whiteSpace=wrap;html=1;" parent="3HujY55bUjkku48g7l_u-2" vertex="1">
          <mxGeometry x="-12" y="-7" width="157" height="77" as="geometry" />
        </mxCell>
        <mxCell id="3HujY55bUjkku48g7l_u-4" value="" style="shape=cylinder3;whiteSpace=wrap;html=1;boundedLbl=1;backgroundOutline=1;size=15;" parent="3HujY55bUjkku48g7l_u-2" vertex="1">
          <mxGeometry x="2" y="11" width="53.5" height="48" as="geometry" />
        </mxCell>
        <mxCell id="3HujY55bUjkku48g7l_u-5" value="&lt;font style=&quot;font-size: 9px;&quot;&gt;Postgres&lt;/font&gt;" style="text;html=1;align=center;verticalAlign=middle;whiteSpace=wrap;rounded=0;" parent="3HujY55bUjkku48g7l_u-2" vertex="1">
          <mxGeometry x="-1.25" y="32" width="60" height="30" as="geometry" />
        </mxCell>
        <mxCell id="3HujY55bUjkku48g7l_u-6" value="" style="group" parent="3HujY55bUjkku48g7l_u-2" vertex="1" connectable="0">
          <mxGeometry x="93" y="12" width="59" height="64" as="geometry" />
        </mxCell>
        <mxCell id="3HujY55bUjkku48g7l_u-7" value="" style="sketch=0;outlineConnect=0;fontColor=#232F3E;gradientColor=none;strokeColor=#232F3E;fillColor=#ffffff;dashed=0;verticalLabelPosition=bottom;verticalAlign=top;align=center;html=1;fontSize=12;fontStyle=0;aspect=fixed;shape=mxgraph.aws4.resourceIcon;resIcon=mxgraph.aws4.data_encryption_key;" parent="3HujY55bUjkku48g7l_u-6" vertex="1">
          <mxGeometry x="3.933333333333333" width="47.542857142857144" height="47.542857142857144" as="geometry" />
        </mxCell>
        <mxCell id="3HujY55bUjkku48g7l_u-8" value="&lt;font style=&quot;font-size: 9px;&quot;&gt;Auth&lt;/font&gt;" style="text;html=1;align=center;verticalAlign=middle;whiteSpace=wrap;rounded=0;" parent="3HujY55bUjkku48g7l_u-6" vertex="1">
          <mxGeometry y="36.57142857142857" width="59" height="27.428571428571427" as="geometry" />
        </mxCell>
        <mxCell id="3HujY55bUjkku48g7l_u-9" value="Supabase" style="text;html=1;align=center;verticalAlign=middle;whiteSpace=wrap;rounded=0;" parent="3HujY55bUjkku48g7l_u-2" vertex="1">
          <mxGeometry x="53" y="-9" width="54.87" height="25.09" as="geometry" />
        </mxCell>
        <mxCell id="3HujY55bUjkku48g7l_u-10" style="edgeStyle=none;curved=1;rounded=0;orthogonalLoop=1;jettySize=auto;html=1;entryX=0;entryY=0;entryDx=45;entryDy=0;entryPerimeter=0;fontSize=12;startSize=8;endSize=8;" parent="3HujY55bUjkku48g7l_u-1" edge="1">
          <mxGeometry relative="1" as="geometry">
            <mxPoint x="95.00000000000023" as="sourcePoint" />
            <mxPoint x="95.00000000000023" as="targetPoint" />
          </mxGeometry>
        </mxCell>
        <mxCell id="3HujY55bUjkku48g7l_u-11" value="" style="endArrow=classic;html=1;rounded=0;exitX=1;exitY=0.5;exitDx=0;exitDy=0;entryX=0.013;entryY=0.112;entryDx=0;entryDy=0;entryPerimeter=0;" parent="1" source="Mdwa0eSkMxEOQ7oAjMho-2" target="3HujY55bUjkku48g7l_u-5" edge="1">
          <mxGeometry width="50" height="50" relative="1" as="geometry">
            <mxPoint x="399" y="528" as="sourcePoint" />
            <mxPoint x="449" y="478" as="targetPoint" />
          </mxGeometry>
        </mxCell>
        <mxCell id="3HujY55bUjkku48g7l_u-15" value="select Jobs query" style="edgeLabel;html=1;align=center;verticalAlign=middle;resizable=0;points=[];" parent="3HujY55bUjkku48g7l_u-11" vertex="1" connectable="0">
          <mxGeometry x="-0.4182" y="-1" relative="1" as="geometry">
            <mxPoint x="15" y="-10" as="offset" />
          </mxGeometry>
        </mxCell>
        <mxCell id="3HujY55bUjkku48g7l_u-12" value="" style="endArrow=classic;html=1;rounded=0;exitX=0.5;exitY=1;exitDx=0;exitDy=0;entryX=1;entryY=0.75;entryDx=0;entryDy=0;edgeStyle=orthogonalEdgeStyle;" parent="1" source="3HujY55bUjkku48g7l_u-5" target="Mdwa0eSkMxEOQ7oAjMho-2" edge="1">
          <mxGeometry width="50" height="50" relative="1" as="geometry">
            <mxPoint x="399" y="528" as="sourcePoint" />
            <mxPoint x="693" y="452" as="targetPoint" />
            <Array as="points">
              <mxPoint x="726" y="538" />
              <mxPoint x="641" y="538" />
              <mxPoint x="641" y="514" />
            </Array>
          </mxGeometry>
        </mxCell>
        <mxCell id="3HujY55bUjkku48g7l_u-14" value="Jobs" style="edgeLabel;html=1;align=center;verticalAlign=middle;resizable=0;points=[];" parent="3HujY55bUjkku48g7l_u-12" vertex="1" connectable="0">
          <mxGeometry x="-0.0766" y="1" relative="1" as="geometry">
            <mxPoint x="-56" y="-35" as="offset" />
          </mxGeometry>
        </mxCell>
        <mxCell id="3HujY55bUjkku48g7l_u-18" value="" style="endArrow=classic;html=1;rounded=0;exitX=0.5;exitY=0;exitDx=0;exitDy=0;entryX=0;entryY=0;entryDx=55;entryDy=100;entryPerimeter=0;" parent="1" source="kwukr2w4ieLjNJShJVtx-2" target="HKgt52hIsj_t4zTF1n8w-2" edge="1">
          <mxGeometry width="50" height="50" relative="1" as="geometry">
            <mxPoint x="428" y="443" as="sourcePoint" />
            <mxPoint x="478" y="393" as="targetPoint" />
          </mxGeometry>
        </mxCell>
        <mxCell id="3HujY55bUjkku48g7l_u-19" value="stats/analysis" style="edgeLabel;html=1;align=center;verticalAlign=middle;resizable=0;points=[];" parent="3HujY55bUjkku48g7l_u-18" vertex="1" connectable="0">
          <mxGeometry x="-0.0006" y="1" relative="1" as="geometry">
            <mxPoint as="offset" />
          </mxGeometry>
        </mxCell>
      </root>
    </mxGraphModel>
  </diagram>
</mxfile>
